<svg version="1.0" xmlns="http://www.w3.org/2000/svg" width="933.33" height="933.33" viewBox="0 0 700 700"><path d="M329.9 38.4c-.2.2-4.2.6-8.9 1-14.6 1.1-30.7 3.8-46.5 7.7-8 2-31.2 9.2-35 10.9-1.1.5-6 2.5-11 4.5-15.3 6.2-35.4 17.1-51.5 27.8-21.5 14.3-47.6 37.4-62.5 55.1-2.8 3.2-6.1 7-7.4 8.5-4 4.5-18.6 25.4-24.6 35.2-4.9 8.1-14.3 26.7-19.8 39-8.2 18.3-17.4 49.6-20.2 68.9-.3 1.9-.7 4.4-1 5.5-.2 1.1-.7 4.7-1 8-.4 3.3-.9 7.1-1.2 8.5-.9 4.5-1.1 50.4-.2 58 .4 4.1 1 9.6 1.3 12.2 5 46.3 26.2 100.9 54.9 140.8 20.7 28.8 40.7 49.2 69.5 70.8 7.5 5.6 14.9 10.8 16.5 11.4 1.5.7 2.7 1.6 2.7 2 0 .5.5.8 1.2.8.6 0 1.9.6 2.7 1.4 4 3.5 32.9 18 46.1 23 5.2 2 10.4 4.1 11.5 4.6 6.4 2.8 33.8 10.2 46.5 12.4 13 2.3 14 2.5 20.4 3.1 3.4.3 7.9.9 10.1 1.2 6.6.9 42.4 1 51 .2 4.4-.4 10.6-1 13.7-1.4 7.6-.7 27.1-4.2 33.6-5.9 2.8-.8 5.2-1.2 5.2-1 0 .3.8 0 1.8-.5 1.1-.6 3-1.2 4.3-1.4 1.3-.3 5.1-1.3 8.4-2.3 3.3-1 6.5-1.9 7-2 1.2-.3 18.4-6.8 23.4-9 10.1-4.3 33.7-16.4 42.1-21.7 10-6.2 27.7-18.6 32-22.3 1.4-1.2 4.8-4.1 7.5-6.4 38.9-32.9 71.9-80.1 89.9-128.5 4.9-13.3 10.8-33.3 12.1-41.5.3-1.9 1-5.1 1.5-7 .8-3.3 2.8-15.6 3.6-22.5 2.8-24 2.3-65.7-1-82.5-.3-1.4-.8-4.5-1.1-7-.4-2.5-1.1-6.5-1.7-9-.5-2.5-1.2-5.9-1.5-7.5-1.6-10.4-10.6-38.1-17.9-55.1-8-18.9-24.5-47.8-33.8-59.5-1.2-1.4-3.2-4.1-4.6-5.9-9.2-12.4-30.2-35.2-41.7-45.1-37.6-32.7-80.5-55.5-127.8-67.9-6-1.6-12.3-3.1-14-3.4-10.1-1.9-20.7-3.6-25-4.1-2.7-.4-6.1-.9-7.5-1.2-3-.6-51.5-1.5-52.1-.9z"/></svg>