<?xml version="1.0" standalone="no"?>
<!DOCTYPE svg PUBLIC "-//W3C//DTD SVG 20010904//EN"
 "http://www.w3.org/TR/2001/REC-SVG-20010904/DTD/svg10.dtd">
<svg version="1.0" xmlns="http://www.w3.org/2000/svg"
 width="700.000000pt" height="700.000000pt" viewBox="0 0 700.000000 700.000000"
 preserveAspectRatio="xMidYMid meet">
<metadata>
Created by potrace 1.14, written by Peter Selinger 2001-2017
</metadata>
<g transform="translate(0.000000,700.000000) scale(0.100000,-0.100000)"
fill="#000000" stroke="none">
<path d="M3299 6616 c-2 -2 -42 -6 -89 -10 -146 -11 -307 -38 -465 -77 -80
-20 -312 -92 -350 -109 -11 -5 -60 -25 -110 -45 -153 -62 -354 -171 -515 -278
-215 -143 -476 -374 -625 -551 -28 -32 -61 -70 -74 -85 -40 -45 -186 -254
-246 -352 -49 -81 -143 -267 -198 -390 -82 -183 -174 -496 -202 -689 -3 -19
-7 -44 -10 -55 -2 -11 -7 -47 -10 -80 -4 -33 -9 -71 -12 -85 -9 -45 -11 -504
-2 -580 4 -41 10 -96 13 -122 50 -463 262 -1009 549 -1408 207 -288 407 -492
695 -708 75 -56 149 -108 165 -114 15 -7 27 -16 27 -20 0 -5 5 -8 12 -8 6 0
19 -6 27 -14 40 -35 329 -180 461 -230 52 -20 104 -41 115 -46 64 -28 338
-102 465 -124 130 -23 140 -25 204 -31 34 -3 79 -9 101 -12 66 -9 424 -10 510
-2 44 4 106 10 137 14 76 7 271 42 336 59 28 8 52 12 52 10 0 -3 8 0 18 5 11
6 30 12 43 14 13 3 51 13 84 23 33 10 65 19 70 20 12 3 184 68 234 90 101 43
337 164 421 217 100 62 277 186 320 223 14 12 48 41 75 64 389 329 719 801
899 1285 49 133 108 333 121 415 3 19 10 51 15 70 8 33 28 156 36 225 28 240
23 657 -10 825 -3 14 -8 45 -11 70 -4 25 -11 65 -17 90 -5 25 -12 59 -15 75
-16 104 -106 381 -179 551 -80 189 -245 478 -338 595 -12 14 -32 41 -46 59
-92 124 -302 352 -417 451 -376 327 -805 555 -1278 679 -60 16 -123 31 -140
34 -101 19 -207 36 -250 41 -27 4 -61 9 -75 12 -30 6 -515 15 -521 9z"/>
</g>
</svg>
