<svg width="71" height="22" viewBox="0 0 71 22" fill="none" xmlns="http://www.w3.org/2000/svg"><path fill-rule="evenodd" clip-rule="evenodd" d="M29.888 9.502a2.736 2.736 0 011.766.557c.455.366.71.937.685 1.532a2.44 2.44 0 01-.395 1.402c-.28.398-.652.718-1.082.93a5.575 5.575 0 01-1.62.513c-.664.11-1.337.162-2.01.157-.002.18.03.358.091.526.064.16.17.297.305.398.17.122.36.208.562.253.29.067.588.098.885.093.4.002.799-.043 1.189-.136a4.61 4.61 0 00.787-.246l-.398 1.713a6.058 6.058 0 01-1.958.306c-.52.01-1.039-.072-1.532-.241a2.723 2.723 0 01-1.048-.659 2.615 2.615 0 01-.591-.998 4.086 4.086 0 01-.183-1.266c0-.62.104-1.237.308-1.82a4.525 4.525 0 01.896-1.547 4.326 4.326 0 013.343-1.467zm-.024 3.266c.202-.1.375-.252.502-.443a.926.926 0 00.142-.454.697.697 0 00-.257-.577 1.154 1.154 0 00-.726-.204c-.498.006-.98.184-1.37.506-.435.34-.736.883-.904 1.628a8.343 8.343 0 001.62-.127c.345-.058.68-.169.993-.329z" fill="#fff"/><path d="M36.106 9.356a2.007 2.007 0 011.056-.26 4.9 4.9 0 011.376.172c.336.094.656.236.947.422l.855-1.47a6.3 6.3 0 00-.418-.217 3.958 3.958 0 00-.612-.237 6.96 6.96 0 00-.826-.186 6.264 6.264 0 00-1.055-.08c-1.2 0-2.125.274-2.776.821a2.74 2.74 0 00-.983 2.19c-.008.32.041.64.146.946.089.244.224.47.4.667.173.19.377.352.605.48.233.135.487.27.758.405.219.105.423.207.615.311.178.098.345.214.497.346.136.117.25.256.334.41.084.157.127.33.123.505.008.216-.047.43-.158.619a1.326 1.326 0 01-.41.41 1.74 1.74 0 01-.598.231c-.24.046-.485.069-.73.067-.269.001-.537-.023-.8-.072a4.993 4.993 0 01-.698-.173 4.844 4.844 0 01-.563-.242 7.603 7.603 0 01-.416-.218v.01l-.435 1.7c.206.11.421.2.645.272a6.759 6.759 0 002.062.315c1.31 0 2.323-.274 3.04-.82.715-.548 1.075-1.35 1.079-2.408a2.654 2.654 0 00-.168-.99 2.335 2.335 0 00-.468-.727 2.976 2.976 0 00-.703-.545 9.948 9.948 0 00-.899-.45 4.338 4.338 0 01-.891-.492.933.933 0 01-.365-.8c0-.433.144-.736.434-.912z" fill="#fff"/><path fill-rule="evenodd" clip-rule="evenodd" d="M43.532 10c.966 0 1.678.244 2.129.738a2.71 2.71 0 01.677 1.905 6.137 6.137 0 01-.295 1.86 4.606 4.606 0 01-.849 1.59 4.135 4.135 0 01-1.457 1.098 4.816 4.816 0 01-2.06.407c-.21 0-.373-.007-.489-.017-.1-.009-.2-.024-.298-.047l-.389 1.559-2.16.907 2.35-9.51c.227-.095.461-.172.7-.23a8.93 8.93 0 01.766-.154 10.8 10.8 0 01.653-.075l.085-.008c.237-.023.449-.023.637-.023zm.156 5.008c.244-.301.429-.646.545-1.014.128-.393.194-.803.195-1.216 0-.152-.016-.302-.047-.45-.03-.141-.09-.274-.176-.39a.844.844 0 00-.361-.27 1.568 1.568 0 00-.614-.104 4.04 4.04 0 00-.526.03 3.39 3.39 0 00-.384.077l-1.053 4.25a.459.459 0 00.176.031h.205c.402.008.8-.078 1.163-.25.34-.165.64-.402.877-.694zM46.986 16.716c.432.521 1.092.782 1.98.782a3.895 3.895 0 001.912-.433c.534-.284 1-.683 1.367-1.17.371-.493.65-1.052.823-1.648a6.62 6.62 0 00.272-1.876c0-.95-.236-1.665-.708-2.146a2.498 2.498 0 00-1.863-.723 3.958 3.958 0 00-1.905.439 4.269 4.269 0 00-1.382 1.17 5.3 5.3 0 00-.846 1.648 6.393 6.393 0 00-.296 1.883c-.002.865.213 1.554.646 2.074zm3.223-1.236c-.24.19-.536.292-.84.287h.005c-.434 0-.722-.148-.864-.439a2.778 2.778 0 01-.212-1.199c.004-.325.05-.649.138-.962.083-.33.21-.648.377-.944.161-.28.375-.526.628-.722.238-.19.532-.29.834-.29.45.003.741.149.885.44.158.378.23.788.21 1.198a3.887 3.887 0 01-.53 1.909c-.167.276-.38.52-.63.722z" fill="#fff"/><path d="M59.364 9.396l-.05.208.052-.208h-.002z" fill="#fff"/><path d="M59.34 9.566l-.019.087-.376 1.704-.027.127a6.865 6.865 0 00-.816-.046c-.274 0-.548.02-.82.057a3.457 3.457 0 00-.777.187L55.221 17.5h-1.88l1.625-7.34a8.285 8.285 0 013.13-.66c.415-.003.83.02 1.244.066zM60.405 14.453a3.106 3.106 0 00-.081.606c0 .312.106.52.323.621.23.107.484.16.74.158.298 0 .595-.034.886-.099.303-.066.6-.156.887-.27v.021l-.429 1.731c-.223.073-.45.13-.681.173-.391.071-.788.107-1.185.106-.85 0-1.483-.18-1.898-.54-.416-.36-.624-.88-.627-1.558.001-.17.012-.338.034-.506.021-.189.057-.375.106-.56l.368-1.485.257-1.038.051-.206.392-1.586.355-1.423L62.15 7.5l-.647 2.531h2.838l-.395 1.593h-2.828l-.712 2.829zM66.658 11.275c.127-.053.26-.088.398-.103.125-.015.25-.023.377-.023.422-.006.843.033 1.257.115.305.067.602.166.885.294l.765-1.565a5.213 5.213 0 00-1.14-.343 7.777 7.777 0 00-1.577-.15c-1.16 0-2.031.235-2.612.705a2.317 2.317 0 00-.876 1.89c-.004.245.035.49.117.722.076.202.196.386.353.54.172.167.371.306.59.414.267.132.544.245.828.34.258.1.471.181.64.253.14.055.273.126.397.211a.655.655 0 01.201.218c.04.081.06.17.059.26a.639.639 0 01-.34.541c-.226.152-.636.226-1.232.224-.481.01-.96-.063-1.415-.215a9.296 9.296 0 01-.554-.213l-.439 1.719c.102.038.217.074.34.11.298.085.602.15.91.197.402.058.81.086 1.217.083a5.37 5.37 0 001.656-.222 3.355 3.355 0 001.13-.588 2.27 2.27 0 00.84-1.735 2.499 2.499 0 00-.107-.777 1.448 1.448 0 00-.352-.558 2.61 2.61 0 00-.605-.44 8.582 8.582 0 00-.87-.39 7.43 7.43 0 01-.675-.259 1.968 1.968 0 01-.388-.22.484.484 0 01-.175-.21.677.677 0 01-.043-.252.491.491 0 01.128-.346.91.91 0 01.312-.227z" fill="#fff"/><path d="M59.36 9.413l-.042.175.044-.175h-.002z" fill="#fff"/><path d="M59.361 9.413l-.044.175.046-.175h-.002zM21.34 11c0 5.799-4.7 10.5-10.5 10.5C5.041 21.5.34 16.799.34 11S5.041.5 10.84.5A10.498 10.498 0 0121.34 11z" fill="#fff"/><path d="M13.34 5.502a2 2 0 11-4-.004 2 2 0 014 .004z" fill="#222D78"/><path fill-rule="evenodd" clip-rule="evenodd" d="M16.351 8.971c.487.164.927.523.98 1.047.06.427-.177.829-.398 1.177a12.909 12.909 0 01-1.858 2.226c-.818.813-1.68 1.57-2.56 2.316.566.44 1.138.872 1.72 1.292l-.058.056-1.15 1.1-.328.315c-.01.007-.345-.25-.48-.354a6.957 6.957 0 00-.053-.04l-.634-.487c-1.852-1.417-3.676-2.887-5.272-4.557-.632-.661-1.261-1.368-1.692-2.17a1.754 1.754 0 01-.218-.59c-.033-.248.019-.5.147-.719.255-.422.714-.598 1.185-.711.998-.24 2.042-.286 3.068-.33l.248-.01a46.367 46.367 0 012.607-.025c1.093.003 2.185.061 3.272.174a9.243 9.243 0 011.141.196c.114.02.226.052.333.094zm-5.484 5.4l.14-.118.009-.005c.71-.593 1.41-1.202 2.083-1.837a17.421 17.421 0 001.583-1.663 16.167 16.167 0 00-.92-.083 40.353 40.353 0 00-3.437-.086 29.947 29.947 0 00-3.31.175c.533.637 1.111 1.24 1.73 1.802.355.335.719.663 1.09.986.194.168.388.334.584.498l.31.262.081.068c.018.032.038.032.057 0z" fill="#222D78"/></svg>