<svg width="120" height="120" viewBox="0 0 120 120" fill="none" xmlns="http://www.w3.org/2000/svg">
<path d="M112.957 59.9799C112.957 89.2381 89.2383 112.957 59.9799 112.957C30.7217 112.957 7.00305 89.2383 7.00305 59.9799C7.00305 30.7217 30.7215 7.00305 59.9799 7.00305C89.2381 7.00305 112.957 30.7215 112.957 59.9799Z" fill="#222D78" stroke="white" stroke-miterlimit="10"/>
<path fill-rule="evenodd" clip-rule="evenodd" d="M94.2974 59.8202C94.2974 78.7732 78.933 94.1378 59.9799 94.1378C41.0269 94.1378 25.6624 78.7732 25.6624 59.8202C25.6624 40.8672 41.0269 25.5026 59.9799 25.5026C78.933 25.5026 94.2974 40.8672 94.2974 59.8202Z" fill="white"/>
<path d="M11.9318 46.8192L14.2237 45.4453L16.0564 45.904L15.4442 48.35L14.8308 48.1963L14.378 47.4315L13.4604 51.0971L13.6906 51.4805L14.9099 51.7858L15.2933 51.5557L16.3625 47.284L17.8889 46.3627L20.3351 46.9749L21.709 49.2664L20.5613 53.8519L18.27 55.2258L17.0503 54.9206L17.6625 52.4746L18.269 52.6265L18.6522 52.3965L19.3395 49.6507L19.1097 49.2674L18.1968 49.0388L17.8133 49.2688L16.8191 53.2409L14.9107 54.3852L12.1585 53.6961L10.7842 51.4046L11.9318 46.8192Z" fill="white"/>
<path d="M17.6667 34.095L20.254 33.4282L21.8814 34.3883L20.5997 36.5599L20.0554 36.2387L19.7267 34.9437L17.9667 37.9258L18.0783 38.3586L22.415 40.9179L22.848 40.8066L23.9654 38.9133L23.8539 38.4805L23.0432 38.0023L24.3249 35.8306L25.6799 36.6303L26.3465 39.2176L24.2654 42.7439L21.6781 43.4108L16.2523 40.2089L15.5854 37.6214L17.6667 34.095Z" fill="white"/>
<path d="M37.5004 15.8792L38.6811 17.7417L38.1532 18.0764L41.1877 22.8639L41.7156 22.5292L42.8964 24.3917L39.4381 26.5841L38.2572 24.7214L38.791 24.3828L36.599 20.9245L36.0145 23.5316L35.4807 23.8699L32.8734 23.2858L35.0655 26.7442L35.5996 26.4058L36.7802 28.2685L33.3219 30.4607L32.1412 28.5981L32.675 28.2595L30.1445 24.2673L30.4356 22.9686L29.1065 23.8107L27.9262 21.9482L30.3226 20.429L34.2325 21.3102L35.11 17.3945L37.5004 15.8792Z" fill="white"/>
<path d="M48.7354 18.9019L51.5078 18.297L49.5167 15.8271L48.7354 18.9019ZM49.3286 12.0006L54.6316 18.5787L55.3999 18.4109L55.9377 20.8743L52.5546 21.6127L52.3526 20.6861L52.83 19.9421L48.5205 20.8825L48.0874 22.5874L45.7818 23.0904L45.2443 20.6268L46.013 20.4592L48.0935 12.2702L49.3286 12.0006Z" fill="white"/>
<path d="M63.2245 15.383L66.3561 15.7544L66.7073 15.4779L66.8556 14.2295L66.5787 13.8782L63.4472 13.5068L63.2245 15.383ZM68.438 11.5596L69.5383 12.9563L69.1669 16.0878L67.7705 17.1884L67.7331 17.502L68.4451 19.4891L69.073 19.5634L68.813 21.7535L66.4696 21.4756L65.278 18.1657L62.9275 17.8868L62.557 21.0114L59.1184 20.6035L59.3782 18.4135L60.0061 18.488L60.5629 13.7941L61.6083 12.9703L60.0458 12.7851L60.3057 10.595L68.438 11.5596Z" fill="white"/>
<path d="M79.4806 14.8874L78.6764 16.9409L78.0877 16.7104L76.0208 21.988L76.6091 22.2186L75.8051 24.2721L71.9922 22.7787L72.7968 20.7254L73.3851 20.9557L75.1091 16.5545L76.3286 16.0214L74.8639 15.4477L75.6678 13.394L79.4806 14.8874Z" fill="white"/>
<path d="M94.1114 24.1675L92.7753 25.9222L92.278 25.5435L88.8445 30.053L89.3419 30.4316L88.006 32.1864L84.7481 29.7058L86.084 27.9513L86.587 28.3342L89.0674 25.0764L86.4197 25.4349L85.9168 25.0521L85.558 22.4044L83.0776 25.6622L83.5805 26.045L82.2445 27.7999L78.9866 25.3194L80.3225 23.5647L80.8257 23.9476L83.6891 20.1868L85.0078 20.0082L83.7561 19.0549L85.0922 17.3004L87.3497 19.0192L87.8829 22.9915L91.8593 22.4528L94.1114 24.1675Z" fill="white"/>
<path d="M103.8 36.8551L101.429 38.4147L100.047 36.314L100.575 35.9666L98.8418 33.3321L97.2635 34.3705L97.7846 35.1626L98.3127 34.8152L99.6947 36.9159L97.0601 38.649L95.6782 36.5485L96.2062 36.2009L95.685 35.4089L94.1066 36.4472L95.84 39.0819L96.3681 38.7344L97.7501 40.8349L95.3794 42.3944L90.1874 34.5026L92.0299 33.2907L92.5511 34.0826L96.5 31.4847L97.8034 31.7537L96.7651 30.1753L98.6075 28.9633L103.8 36.8551Z" fill="white"/>
<path d="M109.137 52.0603L107.007 52.6316L106.843 52.021L103.37 50.0223L101.369 53.4892L101.533 54.0999L99.4026 54.671L98.26 50.4107L100.39 49.8396L100.554 50.4501L101.442 48.9102L99.9007 48.0148L100.064 48.6251L97.9342 49.1964L96.8737 45.2417L99.0039 44.6704L99.1675 45.2809L102.635 47.2816L104.419 44.1999L104.804 44.4164L104.478 43.2021L106.608 42.6309L107.587 46.2807L105.457 46.8518L105.293 46.2413L104.183 48.1751L106.11 49.2871L105.947 48.6767L108.077 48.1053L109.137 52.0603Z" fill="white"/>
<path d="M44.4418 96.9324L43.3577 98.8529L42.8133 98.5456L38.9474 99.6219L40.0272 103.482L40.5714 103.789L39.4875 105.709L35.6464 103.541L36.7305 101.621L37.2808 101.931L36.804 100.219L36.5288 100.063L35.2404 100.417L35.0852 100.692L35.6356 101.003L34.5514 102.923L31.261 101.066L32.345 99.1453L32.8955 99.4559L35.219 95.3397L36.5014 94.9827L35.1312 94.2094L36.2154 92.2888L39.5059 94.1463L38.4218 96.0667L37.8713 95.7561L36.4765 98.2269L40.3424 97.1508L39.7918 96.8402L40.876 94.9196L44.4418 96.9324Z" fill="white"/>
<path d="M48.1367 106.318L50.2802 106.805L50.6585 106.567L51.6366 102.266L52.7697 101.559L49.3934 100.791L49.015 101.029L47.8984 105.94L48.1367 106.318ZM52.9507 99.3382L54.3741 101.6L52.977 107.743L50.7159 109.166L46.723 108.258L45.2997 105.997L46.6967 99.8538L48.9579 98.4304L52.9507 99.3382Z" fill="white"/>
<path d="M61.8071 99.9482L61.9078 102.151L61.2765 102.18L61.535 107.842L63.7382 107.741L63.6953 106.801L65.5826 106.715L65.7263 109.858L58.1769 110.203L58.076 108L58.7077 107.971L58.4919 103.25L59.3891 102.267L57.8174 102.338L57.7169 100.135L61.8071 99.9482Z" fill="white"/>
<path d="M72.2722 98.153L72.8548 100.28L72.245 100.447L73.7421 105.914L74.3518 105.747L74.9342 107.874L70.9849 108.955L70.4023 106.828L71.0121 106.661L69.7637 102.102L70.4229 100.946L68.9055 101.362L68.3229 99.2345L72.2722 98.153Z" fill="white"/>
<path d="M83.4606 92.7747L84.5472 94.6938L84.0033 95.0017L86.796 99.9338L87.3399 99.626L88.4265 101.545L85.5479 103.175L79.9958 99.4419L81.8577 102.73L82.4077 102.419L83.4944 104.338L80.2061 106.2L79.1195 104.281L79.6697 103.969L77.3406 99.8558L77.696 98.5732L76.3268 99.3484L75.2402 97.4292L78.5282 95.5673L83.2073 98.7133L82.2728 97.063L82.628 95.7804L81.2591 96.5556L80.1725 94.6364L83.4606 92.7747Z" fill="white"/>
<path fill-rule="evenodd" clip-rule="evenodd" d="M69.7464 95.977L72.631 95.1868L71.0793 97.7152L68.9684 98.2934L69.7464 95.977Z" fill="white"/>
<path fill-rule="evenodd" clip-rule="evenodd" d="M49.5496 26.5247C48.5212 26.4679 47.4815 26.489 46.4523 26.5595C45.9248 26.6003 45.4022 26.6553 44.876 26.7289C44.3546 26.8071 43.84 26.9021 43.3226 27.0153L42.8124 27.1383C42.1419 27.3132 41.4761 27.5142 40.8328 27.7779C39.4492 28.3752 38.6222 28.9876 37.5161 30.0137C37.209 30.3061 36.9142 30.6055 36.6278 30.9207C36.1658 31.4498 35.7076 31.9863 35.2678 32.5362C34.9934 32.8911 34.7292 33.2491 34.4705 33.6158L33.7539 34.6884C36.928 33.835 41.3804 33.6292 45.0518 34.9144C47.6896 35.8378 49.801 36.8066 49.0814 39.4712L48.4923 41.1117C48.2088 41.259 47.9268 41.4087 47.6522 41.5754L47.3973 41.7331C47.1107 41.6282 46.8224 41.524 46.5311 41.4275C46.071 41.2813 45.6105 41.1527 45.1388 41.0432C44.4948 40.902 43.8452 40.7888 43.1856 40.7395C42.9017 40.721 42.6165 40.7074 42.3302 40.6984L41.506 40.7576L40.7992 40.9045L39.325 40.4956C38.9518 40.3134 38.583 40.1252 38.2222 39.917C37.9675 39.7639 37.7248 39.6035 37.4853 39.4268C37.3428 39.3155 37.2057 39.2014 37.0708 39.0803L36.9262 38.9414L34.9431 37.0248C31.2586 40.066 31.0076 44.6301 32.3329 48.4172C33.8187 52.6643 37.1323 55.4203 40.8166 58.6026C40.8077 59.6797 40.7656 60.7409 40.8016 61.8193C40.8128 62.1004 40.8113 62.3724 40.7924 62.6547C40.7708 62.8585 40.7434 63.0592 40.7088 63.263L40.625 63.6578C40.4724 64.2794 40.2821 64.8995 40.0583 65.5012C39.6658 66.5076 39.2202 67.4944 38.8196 68.5008C38.667 68.8965 38.5254 69.2933 38.3947 69.6979C38.2854 70.0646 38.1897 70.4303 38.1052 70.8052C38.0715 70.9625 38.0379 71.1207 38.0059 71.2798L37.8978 72.4235L37.9691 73.5972L38.0956 74.2304L38.2834 74.8392L38.5568 75.4781C38.7311 75.7587 38.909 76.0374 39.1017 76.306C39.2682 76.5284 39.1102 76.3522 39.2931 76.562C38.7997 77.834 37.6494 79.0294 36.7271 80.1585C39.1467 80.6458 41.5389 80.921 44.164 80.8611L42.8504 85.9738C44.2321 85.0913 45.6161 84.2106 47.0022 83.3376C47.526 83.0055 48.0457 82.6691 48.5503 82.3115C48.7858 82.1409 49.0161 81.9655 49.2452 81.7902C49.4971 81.9472 49.7442 82.1001 50.0044 82.2439C50.6588 82.5959 51.1168 82.9379 51.7968 83.2431C51.5206 84.3167 51.7034 85.185 51.874 86.2837L51.5043 86.798C51.3785 87.0003 51.2653 87.2013 51.1558 87.4128C51.0553 87.6278 50.9653 87.8409 50.8808 88.0635C50.8034 88.2899 50.7353 88.5132 50.6745 88.7444L50.5731 89.21C50.5247 89.5005 50.4843 89.788 50.4642 90.0824C50.4562 90.2489 50.4506 90.4155 50.4478 90.5834C50.4481 91.0294 50.4778 91.4632 50.5428 91.9057C50.5696 92.0682 50.6008 92.2304 50.6352 92.3926C50.7044 92.6766 50.7987 92.9513 50.8967 93.2289C51.6924 95.3102 53.2543 96.5695 54.4299 98.4548L55.1814 96.1219C55.6323 96.4891 56.0844 96.8536 56.5459 97.2108C56.948 97.5219 57.3548 97.8306 57.7597 98.1407C58.4048 96.8381 58.41 95.6202 59.8842 95.5196L60.2679 95.9718C60.4017 96.1083 60.5373 96.2336 60.6851 96.3585C60.8334 96.4723 60.9823 96.5756 61.1424 96.6761C61.3067 96.7691 61.4692 96.8519 61.6431 96.9308L62.0027 97.0674C62.263 97.1479 62.5205 97.2132 62.79 97.2625C62.9663 97.294 63.1445 97.3233 63.3231 97.3497C63.7472 97.4078 64.1741 97.423 64.6037 97.4247C65.279 97.4174 65.9529 97.3717 66.6285 97.3301L68.4774 97.2243L67.2799 94.8179C67.0098 94.0183 67.2311 93.7738 67.9245 93.2505C68.1884 93.1252 68.433 92.9818 68.6774 92.8224L69.063 92.524L69.2409 92.3599C69.3895 92.2045 69.5255 92.0494 69.6529 91.8773C69.8311 91.6254 69.9926 91.3698 70.1422 91.1003C70.2841 90.8292 70.4071 90.5573 70.5163 90.2721C70.5849 90.0804 70.6461 89.8881 70.707 89.6948L71.2196 89.3642C71.4099 89.2233 71.5893 89.0783 71.7675 88.9238C71.943 88.7616 72.1105 88.5958 72.2761 88.4243C72.66 88.0043 73.0106 87.5658 73.3522 87.112C73.8009 86.5078 74.2063 85.8785 74.586 85.2301L74.9091 84.6367C75.3473 83.7628 75.7389 82.8501 75.9267 81.8895C76.0945 80.9385 75.9893 80.1827 75.7846 79.2494L76.0081 78.9003C76.4958 78.0809 76.6786 77.3165 76.8111 76.3817L80.38 77.4618C79.3773 74.9089 78.3717 72.3566 77.4004 69.7935C77.3269 69.5893 77.2632 69.3886 77.2067 69.1804L77.1629 68.9597L77.1386 68.7327V68.5061C77.159 68.3081 77.1867 68.116 77.2219 67.9209C77.3485 67.2902 77.5431 66.677 77.7072 66.0571L78.1473 65.4228L78.5034 64.8228L78.8226 64.2001L79.2375 63.2297L79.4738 62.5641L80.0008 60.6059L80.1558 59.7003L81.4569 58.5306L82.2792 56.9223L82.8593 55.4157L83.5975 55.1963C84.0403 55.0472 84.4692 54.8611 84.8902 54.6568C85.1294 54.5327 85.3631 54.4026 85.5951 54.2655C85.8229 54.1226 86.0452 53.9744 86.2658 53.8186C86.4816 53.6576 86.6919 53.4918 86.8982 53.3193L87.4878 52.7723L87.8541 52.3822L89.0571 50.8666L90.1219 49.2604L90.395 48.7807C90.679 48.2512 90.9354 47.7118 91.1711 47.1607L91.3595 46.6939C91.4884 46.3294 91.605 45.9637 91.7098 45.5928C91.7823 45.309 91.8473 45.0278 91.9041 44.742C91.9541 44.4556 91.9929 44.1721 92.0231 43.8844L92.0511 43.3143L92.0333 42.7495C92.0098 42.5055 91.9806 42.269 91.9337 42.0306C91.79 41.3494 91.6013 40.6834 91.3995 40.0194C91.2128 39.4083 91.0283 38.7993 90.844 38.1893C89.4397 38.7275 88.0315 39.2547 86.6431 39.832C85.9163 40.1508 85.205 40.5024 84.4729 40.8089C84.2438 40.8993 84.0144 40.985 83.7829 41.0651C83.5417 41.1404 83.3027 41.2081 83.0581 41.2677L82.551 41.3398L82.0594 41.3636C81.8125 41.3599 81.5875 41.235 81.3442 41.2151L81.091 41.1874L80.0994 41.1249C80.0797 40.7749 80.0585 40.4256 80.0273 40.0771C79.9724 39.5757 79.8983 39.0832 79.803 38.5899C79.7 38.0975 79.5795 37.6154 79.4405 37.1341C79.294 36.6531 79.1306 36.1801 78.9523 35.7117C78.7661 35.2402 78.5663 34.7785 78.3529 34.32C78.0673 33.7236 77.763 33.14 77.4315 32.5698L77.2875 32.3275C77.1042 32.0261 76.8968 31.7384 76.6896 31.455C76.4417 31.1306 76.1851 30.8186 75.9163 30.5127C75.6418 30.2111 75.3593 29.9235 75.0658 29.6412C74.7627 29.3604 74.4531 29.0918 74.1355 28.8294C73.552 28.3641 72.9393 27.9456 72.3093 27.5467C71.9776 27.3474 71.6457 27.1575 71.3077 26.9749L70.6192 26.6381L69.9161 26.344L69.198 26.097C68.8969 26.0106 68.5982 25.9268 68.2913 25.8683C67.9321 25.8062 67.5764 25.7609 67.2141 25.7334C66.5717 25.6937 65.9225 25.7005 65.2849 25.7843C65.082 25.8151 64.8821 25.8503 64.6818 25.8901L63.1874 26.2712L62.1805 26.6641C61.6786 26.9305 61.1833 27.1979 60.7132 27.5167L60.4689 27.694C60.0575 28.0153 59.6839 28.3801 59.3464 28.7766L59.0516 29.1433C58.7588 28.986 58.4674 28.8285 58.1735 28.6785C57.5013 28.344 56.8213 28.0501 56.1177 27.7905C55.7217 27.6489 55.3271 27.5214 54.9247 27.4066C54.0464 27.1618 53.1611 26.9685 52.2631 26.8214C51.4903 26.6986 50.7157 26.6085 49.9372 26.5503L49.5496 26.5247Z" fill="#B2B2B2"/>
<path fill-rule="evenodd" clip-rule="evenodd" d="M35.0622 38.5676L35.8134 39.5109L36.0361 39.7238L36.0517 39.7378C36.2071 39.8772 36.3669 40.0105 36.5312 40.1394L36.5467 40.1517L36.5623 40.1632C36.8331 40.3626 37.1129 40.5476 37.4017 40.721L37.4202 40.7319C37.8054 40.9546 38.2016 41.1567 38.6007 41.3525L38.7101 41.4061L40.608 41.9321L41.5406 41.7385L42.2087 41.6906C42.4554 41.699 42.7019 41.711 42.9482 41.7265C43.539 41.7712 44.1244 41.8751 44.7024 42.0012C45.1324 42.1018 45.5579 42.2201 45.9787 42.3534C46.2541 42.4454 46.5273 42.5443 46.8005 42.6436L47.4 42.8628L48.1892 42.3731C48.4371 42.2236 48.6942 42.0875 48.951 41.9537L49.3992 41.7203L50.1749 39.5605L50.4735 38.4536L50.4772 38.3002C50.4805 38.1495 50.482 37.999 50.4756 37.8479L50.4744 37.8239C50.4676 37.7138 50.4552 37.6049 50.4404 37.4955L50.4256 37.3842L50.2965 36.9823L50.1364 36.6438L49.9542 36.3533L49.7655 36.1064L49.7327 36.0699C49.5805 35.8988 49.4204 35.7359 49.253 35.5793L49.2246 35.5525L48.7667 35.1725L47.8024 34.5753C47.4963 34.4255 47.1878 34.2823 46.8742 34.1489L46.8573 34.1417L46.1224 33.8528L46.0608 33.8358C45.5699 33.6962 45.0749 33.5593 44.5803 33.4324C43.9652 33.281 43.3491 33.1476 42.7308 33.0415L42.7065 33.0375C42.3917 32.9894 42.0765 32.9474 41.7601 32.9121L41.7453 32.9101L41.7301 32.909C41.4002 32.8798 41.0673 32.8577 40.7364 32.8488C39.9564 32.8352 39.1758 32.8457 38.4021 32.8858C37.6608 32.9302 36.9216 32.9999 36.1908 33.0945C36.1557 33.0992 36.1211 33.1041 36.0863 33.1088C36.1063 33.0828 36.1263 33.0567 36.1462 33.0307C36.5692 32.5021 37.0092 31.9866 37.4545 31.4765C37.7145 31.1917 37.9852 30.917 38.2643 30.6507C39.2272 29.7577 39.9796 29.1918 41.195 28.6659C41.7753 28.4288 42.3796 28.2478 42.9864 28.0884L43.4697 27.972C43.9495 27.8675 44.4324 27.779 44.9183 27.7056C45.4104 27.6372 45.9051 27.5847 46.4007 27.5462C47.3723 27.4805 48.3503 27.459 49.3233 27.5126L49.7007 27.5374C50.4376 27.5922 51.1731 27.6785 51.9082 27.7953C52.7559 27.9339 53.594 28.1173 54.4235 28.348C54.792 28.4534 55.158 28.5718 55.5228 28.702C56.1775 28.9443 56.8146 29.2194 57.439 29.5302C57.7199 29.6732 57.9996 29.825 58.2824 29.9771L59.2432 30.4954L60.2043 29.2962C60.4779 28.9771 60.7798 28.682 61.1106 28.4208L61.3179 28.2703C61.7206 27.9988 62.1519 27.7652 62.5815 27.537L63.443 27.2009L64.8251 26.8486C64.9901 26.8161 65.155 26.7873 65.3213 26.7621C65.8686 26.6912 66.4261 26.6868 66.9768 26.7208C67.2892 26.7449 67.6003 26.7842 67.909 26.8373C68.161 26.8858 68.4101 26.9567 68.6568 27.0267L69.3019 27.2486L69.931 27.5123L70.5606 27.8201C70.8689 27.9875 71.1737 28.1617 71.4743 28.3427C72.0568 28.7112 72.6266 29.1004 73.1657 29.529C73.458 29.7704 73.7439 30.0196 74.0223 30.2767C74.289 30.5338 74.5481 30.7981 74.7979 31.0708C75.0411 31.3483 75.275 31.633 75.4993 31.9255C75.6815 32.175 75.8641 32.4269 76.0247 32.6906L76.1632 32.9243C76.4752 33.4603 76.7614 34.0103 77.0315 34.5737C77.2308 35.0011 77.4186 35.4363 77.5938 35.88C77.7603 36.3163 77.9125 36.7576 78.0483 37.204C78.1768 37.6482 78.2885 38.0968 78.3834 38.5492C78.4707 39.0006 78.5389 39.4551 78.5888 39.9121C78.6184 40.2436 78.6385 40.5756 78.6578 40.9077L78.6996 42.3326C79.7876 42.3033 79.8536 42.1781 80.9291 42.1922L81.9357 42.3537L82.5278 42.3253L83.1599 42.2361L83.2235 42.2204C83.4947 42.1542 83.7631 42.0786 84.0294 41.9948L84.0481 41.9893L84.0666 41.983C84.316 41.896 84.5635 41.8039 84.8091 41.7067L84.8315 41.6978C85.5679 41.3901 86.2824 41.0374 87.0125 40.717C87.9531 40.3253 88.9038 39.9577 89.8562 39.5933C89.9075 39.7619 89.9587 39.93 90.0101 40.0983C90.2007 40.7238 90.3793 41.3537 90.515 41.9933C90.5504 42.1743 90.5727 42.3577 90.5907 42.5415L90.6056 43.013L90.5819 43.4971C90.5559 43.7394 90.5223 43.9809 90.4814 44.2211C90.4305 44.4734 90.3728 44.7241 90.3092 44.9737C90.215 45.3044 90.1104 45.6321 89.9964 45.9568L89.8238 46.3845C89.6063 46.8919 89.3697 47.391 89.1094 47.8774L88.8655 48.306L87.855 49.8302L86.7196 51.2604L86.4193 51.5795L85.888 52.0733C85.7122 52.219 85.5327 52.3608 85.3496 52.4978C85.1587 52.6323 84.9645 52.7617 84.7671 52.8863C84.566 53.0048 84.3622 53.1181 84.155 53.2258C83.797 53.3989 83.4306 53.5595 83.0533 53.6872L81.7266 54.0819L80.9432 56.1152L80.2593 57.4532L78.804 58.7616L78.5845 60.0447L78.0863 61.8973L77.8796 62.4788L77.4984 63.3715L77.2172 63.9192L76.9037 64.4468L76.3619 65.2285L76.3045 65.4447C76.1345 66.0915 75.9338 66.7253 75.8024 67.3827L75.7979 67.4046C75.7568 67.6312 75.7248 67.8591 75.7011 68.0885L75.6951 68.1499L75.6939 68.51L75.7322 68.8616L75.7948 69.1792L75.8064 69.222C75.8716 69.4619 75.947 69.6981 76.031 69.9319L76.0384 69.9525C76.6999 71.6973 77.3766 73.4367 78.0575 75.1737L75.5913 74.4273L75.2954 76.5055C75.2617 76.69 75.2197 76.8727 75.1684 77.0535C75.1216 77.1978 75.0723 77.3476 75.0069 77.4845C74.9274 77.6403 74.8428 77.7933 74.7535 77.9434L74.2578 78.7184C74.4634 79.6569 74.6695 80.4168 74.504 81.3687C74.3395 82.2006 73.9878 83.003 73.609 83.7595L73.3054 84.3163C72.953 84.9176 72.5761 85.5029 72.1601 86.0635C71.8502 86.4751 71.5277 86.88 71.1773 87.2642C71.0379 87.4083 70.8955 87.5492 70.7488 87.6855C70.6115 87.8039 70.4705 87.918 70.3254 88.0271L69.4601 88.5846L69.3216 89.025C69.2671 89.1976 69.2122 89.3703 69.1512 89.5409C69.0629 89.7694 68.9623 89.9922 68.8493 90.21C68.7277 90.4283 68.5942 90.6389 68.4505 90.8431C68.3664 90.9562 68.273 91.0617 68.1761 91.1643L68.0713 91.2612L67.7737 91.4912C67.5975 91.6044 67.4169 91.7098 67.2282 91.8011C64.8094 92.7391 65.2596 94.0609 66.3052 95.7682C65.6867 95.8067 65.0694 95.8471 64.4526 95.8542C64.0888 95.8527 63.7216 95.8415 63.3608 95.7926C63.1998 95.7685 63.0392 95.7426 62.8791 95.7133C62.6768 95.676 62.4782 95.6269 62.2812 95.5671L62.0033 95.4618C61.8892 95.4089 61.7773 95.3516 61.6676 95.2905C61.5612 95.2227 61.4582 95.1511 61.3573 95.075C61.2627 94.994 61.1714 94.9096 61.0829 94.8218L60.308 93.9072C58.4566 94.2597 58.1786 94.5384 57.1287 96.2665C56.0757 95.891 54.7925 94.5095 54.7324 93.2523L53.7436 95.6349L52.3622 93.4202C52.22 93.1191 52.0887 92.8131 51.9699 92.5023C51.8904 92.2781 51.8117 92.0509 51.7547 91.8203C51.7263 91.6877 51.7007 91.5544 51.6782 91.4206C51.6242 91.0494 51.5998 90.6769 51.599 90.3018C51.6009 90.1563 51.6061 90.0114 51.6129 89.8664C51.6293 89.629 51.6631 89.3926 51.7019 89.1579L51.7895 88.7523C51.8395 88.5673 51.8957 88.3835 51.9569 88.2016C52.0242 88.0259 52.0975 87.8528 52.1768 87.6818C52.2597 87.522 52.3477 87.3659 52.442 87.2124L53.0875 86.3142C52.751 84.8183 52.4218 83.7007 53.2591 82.5814C51.7361 81.8982 50.4371 80.8194 49.021 79.9388L48.303 80.4889C48.0824 80.6575 47.8641 80.8245 47.639 80.987C47.1577 81.3283 46.6591 81.6503 46.1552 81.9694C45.6939 82.2602 45.2326 82.5518 44.772 82.8436L45.6608 79.3856C43.3935 79.541 41.0838 79.4823 39.3594 79.0069C40.1378 78.1508 40.8102 77.1643 41.1242 76.3085C40.5631 75.9694 40.4038 75.7931 40.0059 75.2659C39.8519 75.0497 39.708 74.8258 39.5671 74.6008L39.3585 74.1117L39.209 73.6288L39.1118 73.1446L39.0521 72.1551L39.1449 71.1755C39.1714 71.0448 39.1989 70.9156 39.2272 70.7846C39.3019 70.4502 39.3894 70.1162 39.4887 69.7835C39.6096 69.4095 39.7421 69.0389 39.8834 68.6717C40.2836 67.6661 40.7293 66.679 41.1221 65.6701L41.1289 65.6528C41.3704 65.0041 41.5742 64.3407 41.7388 63.6691L41.7437 63.6497L41.8369 63.2096L41.8413 63.184C41.8798 62.9565 41.9115 62.7283 41.9359 62.4988L41.9387 62.4745L41.9402 62.4495C41.9619 62.126 41.9642 61.8051 41.9516 61.4813C41.9158 60.4251 41.9359 59.3659 41.9442 58.3058L41.9495 57.6659L41.4341 57.2778C41.0934 57.0212 40.7548 56.7616 40.4218 56.4957C39.9488 56.1072 39.4878 55.71 39.0324 55.3011C38.3339 54.6615 37.6516 54.0011 36.9781 53.328C35.5139 51.8283 34.0756 49.9874 33.3237 47.5461C32.4442 44.6912 32.5328 41.1588 35.0622 38.5676Z" fill="white"/>
<path fill-rule="evenodd" clip-rule="evenodd" d="M60.2137 32.8717L63.0487 32.1566C63.2677 32.124 63.4697 32.1008 63.689 32.0984L63.9202 32.1332L64.1472 32.2239L64.3414 32.3559L64.6649 32.6935C64.8764 32.9979 65.0575 33.2987 65.2264 33.6266C65.4639 34.1193 65.66 34.6214 65.8413 35.1357C65.9081 35.3259 65.9748 35.5166 66.0414 35.7043C66.1259 36.0388 66.1731 36.3475 66.19 36.6895C66.1925 37.0667 66.162 37.428 66.108 37.7988C65.9489 38.7608 65.6985 39.7062 65.4952 40.6566C65.3862 41.1808 65.331 41.4895 65.2461 42.0167C64.7795 41.8228 63.8564 41.7411 63.0635 41.7563C63.1292 41.0275 62.9735 40.2742 62.9069 39.5329C62.8649 39.1653 62.8123 38.8012 62.7456 38.4352C62.6337 37.8866 62.494 37.3583 62.3217 36.824C62.1367 36.2923 61.9278 35.782 61.6834 35.2717C61.4268 34.7616 61.1489 34.2763 60.8357 33.7937L60.2137 32.8717ZM49.3868 74.0578C48.7745 72.6822 51.0221 71.251 49.9153 70.7362C45.6499 68.6803 53.9292 69.658 54.9837 70.9505C51.8045 69.365 50.0999 74.3655 49.9834 75.59C50.0001 75.0465 49.4932 74.297 49.3868 74.0578ZM44.7242 62.5001C45.2139 64.1442 45.6529 64.7588 46.8784 66.2993C48.4264 68.2453 49.817 68.6467 51.3918 69.123C52.0639 69.3263 54.6458 69.7627 56.3491 70.724C55.7087 70.1432 54.3783 69.4242 52.6788 68.621C50.7541 67.7113 49.2395 66.5948 47.8302 64.5153C46.5888 62.3402 46.3771 59.546 45.323 56.7069C44.4225 56.7608 44.72 60.1205 44.7242 62.5001ZM64.9705 91.9597L65.2212 91.7556L65.5585 91.5533C65.971 91.3529 66.3938 91.1827 66.8142 90.9946L67.0778 90.8561L67.313 90.701L67.6269 90.4111L67.816 90.1715C68.1343 89.6946 68.3209 89.1984 68.4679 88.6467C68.5339 88.3751 68.5876 88.0976 68.6433 87.8209L69.3538 87.5521C69.5296 87.4608 69.685 87.3646 69.8487 87.2489L70.1679 86.9831C70.4002 86.7639 70.6097 86.5289 70.821 86.2871C71.3733 85.6158 71.8731 84.9162 72.3285 84.1746C72.497 83.8829 72.6588 83.5878 72.813 83.2862C73.1606 82.5613 73.5111 81.8085 73.6472 81.0092L73.6681 80.7354L73.6344 80.1846L73.5111 79.626L73.3147 79.0592L73.035 78.399L73.8818 77.6028C74.0224 77.3961 74.1337 77.1982 74.2331 76.9669C74.3169 76.7237 74.3669 76.4958 74.4045 76.2399L74.3953 75.6801C74.3656 75.3897 74.3224 75.113 74.2628 74.8263C74.1005 74.1747 73.8858 73.538 73.6844 72.896L76.5133 73.7533C76.1097 72.7141 75.7076 71.673 75.3108 70.6313C75.1369 70.1716 74.9792 69.7178 74.8658 69.2385C74.8142 68.9801 74.7806 68.7303 74.7637 68.4655C74.751 67.5733 75.0141 66.6911 75.2496 65.8336C75.3468 65.4787 75.4377 65.1207 75.5222 64.7603C75.6984 64.5564 75.8651 64.3559 76.024 64.136C76.2315 63.8271 76.4106 63.5144 76.5779 63.1801C77.0233 62.2317 77.3573 61.2329 77.6083 60.2165C77.7205 59.7364 77.8038 59.263 77.8477 58.7697L77.8766 58.3512C78.4153 57.8674 78.9752 57.4019 79.5042 56.905L80.0977 55.7477L80.5959 54.4513L80.6651 54.0008L80.6999 53.2775L81.8625 53.0861L82.8372 52.8081L83.7548 52.4137C84.0491 52.2562 84.3275 52.0922 84.6094 51.9087L85.1409 51.5137C85.4515 51.2512 85.7451 50.9841 86.0163 50.6768L86.3154 50.3243C87.017 49.4695 87.6691 48.5627 88.2156 47.5996C88.4379 47.1923 88.6458 46.7827 88.8412 46.3597C89.0214 45.9409 89.1816 45.5247 89.3242 45.0895L89.4984 44.4442C89.6193 43.8647 89.7158 43.2656 89.6846 42.6701C89.6266 42.0298 89.4475 41.4266 89.2606 40.812C88.4937 41.1096 87.7195 41.3923 86.9738 41.7299C86.2665 42.0554 85.5658 42.3887 84.8436 42.6754C84.3567 42.8564 83.8801 43.0057 83.3763 43.1256L83.0536 43.1904C82.7385 43.2296 82.4316 43.2573 82.116 43.2724L81.5106 43.2672C81.1989 43.2477 80.8958 43.2173 80.587 43.1768C79.8581 43.0458 79.2751 43.1895 78.551 43.3643L77.4665 43.6489C77.5447 43.1271 77.632 42.6073 77.686 42.0815C77.7307 41.5404 77.7381 41.0081 77.7128 40.4639C77.6764 39.9209 77.6099 39.3883 77.5106 38.8512C77.3869 38.2329 77.2294 37.6303 77.036 37.0278C76.9355 36.7283 76.8285 36.4296 76.7149 36.1324C76.2971 35.0747 75.7782 34.0515 75.1859 33.0771C74.4729 31.9331 73.5139 30.9655 72.459 30.1245C71.9956 29.7702 71.5235 29.4468 71.0258 29.1434C68.249 27.5161 66.7442 27.221 63.7548 28.0597L62.955 28.3721L62.5766 28.5583L62.2156 28.7641L61.8729 28.9907L61.5525 29.2386L61.2522 29.509L60.9762 29.8008C60.7844 30.0404 60.5886 30.2796 60.4508 30.5534C60.186 31.1276 59.9942 31.7444 59.7848 32.3368C59.3876 31.9803 58.9998 31.6146 58.5766 31.2846C58.1752 30.9907 57.7629 30.7348 57.3247 30.4946C56.7348 30.1834 56.1186 29.8843 55.4884 29.6559C54.9158 29.4533 54.3364 29.2703 53.7513 29.1001C52.8069 28.8763 51.859 28.6968 50.8942 28.5679C50.6721 28.5387 50.4498 28.5122 50.225 28.4857C49.3304 28.4209 48.4331 28.3721 47.5334 28.3989C46.8343 28.4252 46.1414 28.4773 45.4442 28.5566C42.15 28.9731 40.1231 29.8189 37.853 32.3923C40.7923 31.7996 43.373 32.1845 46.1923 32.9118C46.8404 33.132 47.4599 33.386 48.0745 33.6803L48.3285 33.8076C49.9203 34.7996 51.3616 35.931 51.4101 38.0226C51.5214 38.9242 51.1291 39.4543 50.612 40.9521C50.5214 41.2265 50.4442 41.4959 50.378 41.7754L50.2679 42.3855L49.3945 42.7491C49.1138 42.8916 48.8442 43.0421 48.574 43.2064C48.2136 43.4423 47.8694 43.6942 47.5235 43.9514C47.2111 43.812 46.8987 43.6717 46.5811 43.54C45.8907 43.2641 45.1968 43.0402 44.4698 42.8707C43.6745 42.6998 42.8693 42.5894 42.0519 42.6024C41.8468 42.6181 41.643 42.636 41.4395 42.6803C41.1909 42.7334 40.9409 42.7923 40.6923 42.85L40.1937 42.8044L39.7375 42.717L39.2718 42.5894L38.7984 42.4259L38.3222 42.2333L37.3836 41.7759L36.5029 41.2493L36.1 40.9693L35.7296 40.6843L35.3963 40.393L35.106 40.0979L34.9599 39.9134C34.7684 40.0799 34.6122 40.2829 34.4709 40.4923C32.3095 44.8583 34.7412 49.8111 37.689 52.7421C38.293 53.3564 38.9141 53.9506 39.5501 54.5301C40.4423 55.3352 41.3581 56.1268 42.3575 56.7957L42.8777 57.1221L42.8468 60.919L42.8953 62.2017C42.8777 62.5104 42.8463 62.8101 42.8006 63.1144C42.677 63.8231 42.4812 64.5 42.2657 65.1833L42.1355 65.5924C41.7654 66.6434 41.2862 67.6498 40.8589 68.6773C40.6862 69.1139 40.5265 69.5503 40.3782 69.9952L40.1412 70.8787L40.058 71.3165L40.0019 71.7489L39.9761 72.1759L39.9834 72.5941L40.0254 73.0054L40.1062 73.4073L40.228 73.8014L40.3923 74.1847C41.0418 75.2355 41.5847 75.4686 42.7867 75.8322C42.4179 76.671 41.8783 77.4398 41.1688 78.1442C42.1768 78.2303 43.1876 78.3459 44.1975 78.3721C44.467 78.3697 44.7242 78.3573 44.9906 78.3293L45.2391 78.2883L46.0505 78.0921L46.2864 78.9155L46.3477 79.219L46.3826 79.519L46.3801 80.0984C46.3492 80.3444 46.3125 80.5738 46.2476 80.8118C46.5833 80.5975 46.9157 80.3768 47.2403 80.147C47.5864 79.8887 47.9092 79.6231 48.2268 79.332L49.1907 78.2991C49.4325 78.6503 49.6561 79.0132 49.9416 79.3284C50.0689 79.4514 50.1942 79.5599 50.3329 79.6667C51.5473 80.5188 53.5007 81.7726 54.7991 82.3945C54.5115 82.8235 54.4067 82.806 54.1513 83.2541C54.0384 83.4677 53.9595 83.6815 53.8966 83.9125C53.8221 84.2489 53.8061 84.5545 53.8239 84.8965C53.8467 85.158 53.8825 85.4151 53.929 85.6726C53.9912 85.8696 54.0024 86.0454 53.9999 86.2483C53.9792 86.4817 53.9343 86.6878 53.8778 86.915L53.39 87.4463C53.2358 87.6727 53.1033 87.8937 52.9768 88.1361C52.8683 88.3807 52.7798 88.6161 52.7005 88.8706C52.6367 89.128 52.5898 89.3759 52.5543 89.6378L52.5207 90.1676C52.5226 90.6766 52.5419 91.2156 52.6736 91.7078C52.8486 92.3002 53.0697 92.8713 53.4149 93.3915C53.5346 92.94 53.7036 92.526 53.9201 92.1163L54.1973 91.7121C54.3364 91.5545 54.472 91.4198 54.6336 91.285L54.9003 91.0991L56.3447 90.1937L55.9066 91.961L55.8597 92.2829L55.847 92.5773L55.8649 92.8472L55.9086 93.0958L55.9763 93.3245L56.0641 93.5355L56.2938 93.9129C56.4581 94.1134 56.6215 94.2844 56.8289 94.4426L56.9198 94.258L57.1187 93.9696L57.37 93.7082L57.6743 93.484L58.0268 93.3054L58.4228 93.1731L58.7284 93.1118C59.0737 93.0727 59.4151 93.0575 59.7591 93.0381L60.1529 92.9798L60.8088 92.7766L61.3858 93.7353L61.5557 93.9721L61.7318 94.1775L61.9158 94.3526L62.1136 94.4984L62.335 94.6169L62.7956 94.7674L63.1984 94.8535C63.7531 94.9425 64.2952 94.9684 64.8545 94.9308C64.6782 94.5947 64.5656 94.2401 64.4784 93.8735L64.436 93.5993L64.4219 93.319L64.4411 93.0338L64.4999 92.7479L64.6054 92.4679L64.7623 92.2012L64.9705 91.9597Z" fill="#222D78"/>
<path fill-rule="evenodd" clip-rule="evenodd" d="M57.544 72.3362C57.3743 71.6628 56.5053 70.1871 52.7476 68.8671C50.8473 67.9106 49.2393 66.5952 47.83 64.5157C46.5886 62.3406 46.3769 59.5462 45.3228 56.7072C44.3261 56.7669 44.7971 60.8776 44.7135 63.2253C44.6669 64.5439 44.5175 66.3423 43.7532 67.4114C42.9215 68.5747 40.7161 71.5702 42.3546 73.864C42.2276 72.7619 43.3053 71.1565 44.6125 71.8862C46.0002 73.101 44.7775 75.973 43.9768 76.3809C44.7743 76.1692 46.3352 76.0382 46.7034 74.0674C46.9598 72.6945 47.3339 73.0105 47.6135 72.2021C47.8388 72.8058 47.0701 73.6624 47.7548 74.6391C48.1994 75.2737 48.0947 76.8875 47.8811 77.2572C48.7372 76.6221 49.0222 75.2592 49.2837 74.6593C49.3393 74.5316 49.4285 74.1939 49.36 73.9938C49.5651 74.3084 50.1126 74.4575 49.9832 75.5304C50.193 73.4392 51.2128 72.0941 52.122 70.8579C55.4386 68.604 57.7436 74.9596 58.3745 77.8354C58.5602 79.1513 59.2757 81.9479 59.9761 83.0244C60.6107 84.1268 63.2818 85.3362 64.8529 85.2779C66.4165 83.5023 66.3463 82.665 66.3506 81.9155C66.4989 81.2758 66.251 80.2436 65.7494 79.7812C65.2084 79.1768 63.4714 78.3364 63.1001 78.796C63.0485 78.8603 63.1066 78.9199 63.2612 78.976C63.8257 79.1796 65.1696 79.6882 64.9273 80.3125C64.8361 79.7746 63.1384 79.4558 62.8156 79.3483C62.1633 79.2499 62.2022 78.1521 62.9938 77.9514C64.8206 77.4885 66.556 78.8024 67.2423 80.4037C67.8628 80.1099 68.4842 78.9891 70.4975 79.2931C71.3356 79.369 71.5172 80.0668 71.1071 80.5415C71.0257 80.6357 70.8788 80.7577 70.7074 80.8098C70.4317 80.8943 69.5919 80.837 69.0767 81.0275C69.2773 80.8427 69.9945 80.541 70.279 80.5347C70.7426 80.5242 70.679 80.1908 70.5243 80.1375C69.2669 79.7044 67.7402 81.0559 67.2633 82.0551C67.0492 82.5033 66.794 84.242 65.2388 85.5188C67.125 85.9171 68.1792 86.4305 69.2021 85.2164C70.1307 84.1025 71.741 82.3056 71.9044 80.7326C71.9052 79.727 70.8844 78.2361 70.6994 77.6814C69.2541 74.9735 67.9287 68.8045 68.8187 66.6638C69.0238 66.946 69.7775 67.1532 70.0633 67.0411C69.8362 67.391 69.0691 70.5174 69.6379 72.7939C69.6956 72.8267 69.8872 70.95 69.9448 70.9173C70.3876 68.7045 71.7463 66.9665 73.2709 65.6518C73.6037 65.3646 73.5093 64.8565 73.7886 64.5093C73.1135 64.7685 72.1114 65.1645 71.4529 65.0781C71.2682 65.226 70.5233 66.0601 69.7863 65.8788C68.4036 65.5382 68.2529 64.8561 68.8992 62.5361C68.8212 63.8436 70.2203 64.2479 70.4567 64.1396C71.0065 63.8876 71.6013 64.0415 71.8011 62.4289C72.1726 61.3308 72.4875 60.5158 73.3495 59.7094C75.8238 57.571 79.7938 55.2796 78.6813 52.969C77.817 52.3599 77.4184 51.6312 77.6058 50.1851C77.8219 48.522 75.4602 46.7727 74.2814 46.0441C72.1461 47.2941 67.0257 46.5967 66.3548 43.9302C65.7923 43.758 64.9759 44.0326 64.7361 44.442C64.5757 44.5673 64.4395 45.1791 64.4457 45.3683C64.4553 45.6676 64.5841 46.0537 64.798 46.4852C64.8987 46.688 65.1084 47.2594 65.0276 47.4748C64.9829 47.6378 64.6922 47.1498 64.6396 47.1299C64.5276 46.9772 64.3018 46.1389 63.8593 45.8041C63.6717 45.365 61.4008 44.5429 60.8135 44.6568C60.7214 44.9135 60.8133 44.7707 60.7022 44.9669C58.9778 47.51 54.4875 46.1626 52.6522 44.8535C52.2803 44.5028 52.3419 44.7253 52.1567 44.3896C51.2092 44.1966 48.8794 45.9639 48.3719 46.9521C49.4611 49.7488 48.8865 52.2381 46.843 54.7939C47.1428 55.707 47.3513 59.7401 47.9203 61.8568C48.4835 65.2007 51.7644 67.5848 53.568 68.4655C55.7062 69.4429 57.9793 71.6371 57.544 72.3362Z" fill="white"/>
<path fill-rule="evenodd" clip-rule="evenodd" d="M63.0991 92.1265C61.9361 91.6979 62.6632 88.988 63.0918 88.2089C62.915 88.5053 62.0273 89.6868 61.0414 90.5051C59.8557 91.4889 57.9883 90.9317 57.4198 91.7453C58.0829 90.2187 59.2076 88.7173 58.6762 87.5053C58.0749 89.0296 55.7782 88.5018 54.6698 89.7152C54.7698 88.1306 55.173 88.5309 55.5427 87.2624C55.7846 86.4321 55.6764 85.7206 55.5944 85.373C55.3592 84.3756 55.5679 84.426 55.9282 83.9573C56.2251 83.9842 57.4808 84.6722 57.721 83.8939C61.0327 86.9127 62.6331 86.7229 63.8724 87.2065C64.7846 87.408 65.9959 87.6467 66.8643 87.4781C67.0529 87.9058 66.4182 89.322 65.4527 89.5239C63.1872 90.1405 62.9548 92.1067 63.0991 92.1265Z" fill="white"/>
<path fill-rule="evenodd" clip-rule="evenodd" d="M45.1572 55.083C43.2046 53.3426 42.9114 51.3631 42.1489 49.0784C41.8285 49.1035 34.3563 46.4514 35.3159 42.061C36.6332 43.0943 38.9858 44.6908 40.8229 44.6758C43.4342 44.4039 44.249 44.0697 46.6523 45.6579C48.5612 47.5016 47.6446 51.0842 46.7197 52.7128C46.5811 52.9739 45.4808 55.0069 45.1572 55.083Z" fill="white"/>
<path fill-rule="evenodd" clip-rule="evenodd" d="M59.3916 78.2894C59.3223 78.2458 59.2643 78.2025 59.2068 78.1697C59.2068 78.0176 59.461 77.9371 59.6228 77.5455C60.2351 76.7404 60.1928 76.8611 60.8052 75.9582C62.6892 72.8688 63.5117 69.5392 62.635 66.0583C62.6367 66.0944 63.5559 66.3495 64.1979 66.127C64.4645 67.3965 63.5195 71.3819 63.1275 72.4747C62.7949 73.3759 60.5226 78.0413 59.3916 78.2894Z" fill="#222D78"/>
<path fill-rule="evenodd" clip-rule="evenodd" d="M70.5483 75.4211C70.1073 74.3974 70.1736 73.2167 70.1697 73.1831C70.0718 72.3467 70.3997 71.1424 70.6898 70.2505C71.1087 68.9629 71.6607 68.0394 72.3008 67.399C72.6358 67.0633 72.9859 66.8377 73.3725 66.6129C73.0488 66.8089 72.8945 67.253 72.9363 67.9616C73.014 69.2691 73.5966 71.0899 73.9478 71.3866C72.6511 71.3642 71.2622 70.849 71.2622 72.144C71.7274 73.1978 73.704 73.9138 72.0871 76.5776C72.4173 75.8422 71.2732 74.2161 70.5483 75.4211Z" fill="white"/>
<path fill-rule="evenodd" clip-rule="evenodd" d="M76.3781 46.2791C77.425 45.4801 79.2447 44.8021 80.5753 44.7504C83.4818 45.3333 87.0875 43.7698 87.8664 43.0148C88.1187 42.77 87.8614 44.7599 86.4556 46.3525C84.8532 47.7573 82.4576 49.6401 80.4362 49.5336C80.3461 50.9258 78.3265 51.6178 78.5018 51.131C79.1508 49.3284 77.478 47.0868 76.3781 46.2791Z" fill="white"/>
<path fill-rule="evenodd" clip-rule="evenodd" d="M67.7787 60.6142C64.2661 60.2879 62.2675 57.0499 60.6602 54.0366C60.2908 53.3731 59.6473 52.1241 59.5663 51.4823C60.2714 50.8187 61.0722 53.2424 61.3264 53.6339C62.736 56.9083 65.263 59.3579 69.3301 58.5966C71.2687 57.8506 71.2037 55.8625 71.4064 53.6579C71.4755 53.3206 71.433 53.0489 71.641 52.7987C71.976 52.8311 72.1494 52.8528 72.3574 53.2881C72.0894 55.6503 71.5867 60.6142 67.7787 60.6142Z" fill="#222D78"/>
<path fill-rule="evenodd" clip-rule="evenodd" d="M64.8911 62.5355C66.395 64.6589 64.6551 66.0566 61.9554 64.8857C60.9152 64.255 60.6522 63.4841 59.9819 62.8858C57.4543 63.6737 53.341 62.1199 52.7591 61.3089C50.6908 59.5573 51.1298 57.9686 51.2338 55.608C51.3147 55.2817 51.3957 55.173 51.3957 55.0641C50.1814 53.5099 50.0897 53.3487 49.7945 51.6766C49.737 51.351 49.5778 50.8577 49.9572 50.692C50.7633 50.3393 51.0248 52.8892 51.1183 53.1822C51.973 54.7156 53.4081 55.3798 55.0483 56.3369C56.9316 57.1745 56.8916 58.082 58.2089 59.8009C59.3645 61.5521 60.1927 61.8942 62.0631 63.2334C63.6676 64.1641 65.2605 63.5525 64.8911 62.5355Z" fill="#222D78"/>
<path fill-rule="evenodd" clip-rule="evenodd" d="M52.1118 55.7607C52.2923 56.1196 54.1859 57.1607 54.7231 57.2525C53.5326 58.6534 53.5655 60.0301 54.4549 61.8028C50.9329 59.9623 52.0773 56.7916 52.1118 55.7607Z" fill="white"/>
<path fill-rule="evenodd" clip-rule="evenodd" d="M75.1171 62.5062C75.4033 61.985 75.2981 59.717 74.877 59.4512C75.1313 59.3096 75.6836 58.5853 75.984 58.5308C76.3421 59.0856 75.4519 62.082 75.1171 62.5062Z" fill="white"/>
<path fill-rule="evenodd" clip-rule="evenodd" d="M58.1151 62.4786C58.3401 62.4196 58.49 61.8338 58.5428 61.5994C58.4674 61.7534 58.8601 62.3068 59.213 62.4928C59.0859 62.547 58.6584 62.6371 58.1151 62.4786Z" fill="white"/>
<path fill-rule="evenodd" clip-rule="evenodd" d="M56.2206 61.524C57.0288 61.3324 57.3579 60.3381 57.3915 60.2192C57.6668 60.2639 57.9632 60.6493 58.0361 61.0198C58.3786 62.7563 55.7941 62.5708 55.2186 61.7C54.2936 60.3007 54.5612 58.7186 55.4624 57.6404C56.6811 58.3493 56.9009 60.1395 56.2206 61.524Z" fill="#B2B2B2"/>
<path fill-rule="evenodd" clip-rule="evenodd" d="M72.9696 61.8519C73.608 62.3389 73.6569 63.0901 73.6231 63.2431C73.5357 63.6392 74.148 61.9587 73.4963 60.7691C73.3334 60.4714 74.2684 59.7652 74.5278 59.6917C74.6405 60.6997 75.171 62.8972 73.7862 63.801C72.9994 64.1056 72.4958 63.4162 72.5205 62.7385C72.5375 62.2627 72.7736 61.7025 72.9696 61.8519Z" fill="#B2B2B2"/>
<path fill-rule="evenodd" clip-rule="evenodd" d="M50.2064 50.6752C50.7639 51.0081 51.0385 52.9323 51.1183 53.1823C51.9728 54.7158 53.408 55.3801 55.0481 56.337C56.9315 57.1747 56.8914 58.0821 58.2087 59.801C59.3644 61.5524 60.1925 61.944 62.063 63.2832C63.654 64.206 65.2332 63.563 64.8994 62.5611C64.7643 62.3034 64.5486 62.0587 64.2458 61.8557C64.4531 62.8726 63.6705 63.0536 62.066 62.1229C60.7223 61.4104 59.813 60.9506 58.6574 59.1994C57.34 57.4806 57.1777 56.5731 55.2944 55.7355C53.6143 54.8694 51.5327 53.698 51.3645 52.5807C51.2831 52.326 50.8535 50.7635 50.2064 50.6752Z" fill="#B2B2B2"/>
<path fill-rule="evenodd" clip-rule="evenodd" d="M59.7082 51.3897C60.3751 51.1327 61.0892 53.435 61.3265 53.8003C62.7361 57.0747 65.2629 59.358 69.33 58.5967C71.2688 57.8505 71.2037 55.8623 71.4063 53.658C71.4755 53.3207 71.433 53.0489 71.641 52.7986C71.7507 52.8092 71.8431 52.8188 71.9249 52.842C71.8061 52.7709 71.6713 52.7585 71.4868 52.7433C71.2811 52.9535 71.2696 53.1819 71.2012 53.4653C71.0009 55.3172 70.9566 56.8568 69.0391 57.4836C65.0164 58.1233 62.8946 56.0573 61.5004 53.3064C61.249 52.9775 60.4033 50.8188 59.7061 51.3763C59.7067 51.3806 59.7073 51.3852 59.7082 51.3897Z" fill="#B2B2B2"/>
<path fill-rule="evenodd" clip-rule="evenodd" d="M77.5727 51.1367C77.2208 48.9674 76.0062 48.3478 74.0147 46.9387C70.5804 48.7842 65.536 45.9965 65.9961 44.8845C64.2367 45.0643 66.6501 47.6 65.2803 49.277C64.9267 48.7389 64.4297 45.6801 61.5273 45.5265C60.9514 49.3781 52.9248 47.3206 51.5909 45.4868C51.4384 45.5226 50.0999 46.3629 49.3706 46.903C49.5285 48.466 49.7316 50.9972 47.9731 53.1185C49.0584 51.1317 49.2225 49.1354 48.3721 46.9518C48.8795 45.9636 51.2093 44.1962 52.1568 44.3892C52.4126 44.6875 52.7637 44.9425 53.0769 45.1285C55.1053 46.3324 59.099 47.3308 60.7022 44.9666C60.8135 44.7703 60.7213 44.9131 60.8137 44.6564C61.4007 44.5425 63.6718 45.3647 63.8595 45.8037C64.3018 46.1385 64.4224 46.5016 64.5344 46.6544C64.5871 46.6743 64.9128 47.4336 64.9575 47.2705C65.0382 47.0554 64.8987 46.6876 64.7982 46.4848C64.584 46.0533 64.4554 45.6672 64.4457 45.368C64.4396 45.1787 64.5759 44.5669 64.7363 44.4416C64.976 44.0322 65.7924 43.7577 66.3548 43.9298C67.0259 46.5964 72.2109 47.1685 74.3462 45.9186C75.525 46.647 77.822 48.5216 77.606 50.1847C77.586 50.339 77.5732 50.4742 77.5664 50.6131C77.5617 50.7333 77.5614 50.92 77.5727 51.1367Z" fill="#B2B2B2"/>
<path fill-rule="evenodd" clip-rule="evenodd" d="M68.8976 62.5421L68.9284 62.1996C69.2463 62.8658 69.9359 63.0128 70.4388 62.6607C71.7888 61.7158 71.4866 59.8966 72.9035 59.0481C74.3606 58.1753 75.5648 57.3219 77.1173 55.9092C77.8974 55.1991 78.4688 54.1669 78.3892 53.2188C78.5148 53.2586 78.6404 53.2984 78.766 53.3382C79.562 55.5802 75.7512 57.6332 73.3497 59.709C72.4876 60.5155 72.1727 61.3303 71.8013 62.4286C71.607 64.1348 70.926 64.0731 70.3634 64.1557C69.9209 64.2207 68.8215 63.843 68.8994 62.5356C68.8988 62.5378 68.8983 62.5399 68.8976 62.5421Z" fill="#B2B2B2"/>
<path fill-rule="evenodd" clip-rule="evenodd" d="M73.7778 64.5056C73.6453 64.9156 73.5128 65.3255 73.3803 65.7354C70.7001 67.6511 70.2059 69.8373 69.6608 72.729C69.3303 72.0032 69.669 67.9438 71.6148 65.7037C72.7543 65.0119 72.6383 65.1974 73.7778 64.5056Z" fill="#B2B2B2"/>
<path fill-rule="evenodd" clip-rule="evenodd" d="M55.9167 88.5195C56.7061 87.1496 56.4709 86.1552 56.5121 84.5667C56.6238 84.348 57.1634 86.9832 56.7546 87.6545C56.6329 87.8547 57.4898 87.7247 57.797 86.8656C57.8813 88.0613 56.7711 88.25 55.9167 88.5195Z" fill="#B2B2B2"/>
<path fill-rule="evenodd" clip-rule="evenodd" d="M58.7331 90.7095C59.4774 89.7942 59.692 87.9004 59.5908 87.0618C60.1862 88.0715 60.08 89.6882 59.7657 89.9273C60.3725 89.4905 60.1887 89.9121 60.8333 89.1769C60.8129 90.1879 59.6206 90.63 58.7331 90.7095Z" fill="#B2B2B2"/>
<path fill-rule="evenodd" clip-rule="evenodd" d="M44.724 62.5C45.2137 64.1442 45.6526 64.7587 46.8782 66.2991C48.4263 68.2451 49.8167 68.6465 51.3916 69.123C52.0637 69.3263 54.6456 69.7625 56.3488 70.7239C55.7085 70.143 54.3782 69.4242 52.6787 68.6209C50.7538 67.7112 49.2394 66.5948 47.8301 64.5153C46.5887 62.3402 46.377 59.546 45.3228 56.7068C44.4223 56.7608 44.7197 60.1205 44.724 62.5Z" fill="#B2B2B2"/>
<path fill-rule="evenodd" clip-rule="evenodd" d="M67.0424 82.6294C67.0807 83.3773 67.2037 84.0585 67.8531 84.2965C68.765 84.6306 69.3962 84.5847 70.1528 84.0686C69.8129 84.4955 69.4777 84.8859 69.2023 85.2162C68.1795 86.4303 67.1251 85.9169 65.2389 85.5186C66.3863 84.5634 66.8202 83.374 67.0424 82.6294ZM58.6025 79.0392C58.6181 79.0874 58.823 79.5327 58.8394 79.5801C59.6175 81.843 61.1323 83.1089 62.3312 83.4751C63.4955 83.8308 65.1701 84.0472 66.3481 82.2579C66.3312 82.9343 66.1845 83.7658 64.853 85.2777C63.2819 85.3361 60.611 84.1266 59.9763 83.0242C59.5216 82.3254 59.0607 80.9019 58.7424 79.6291C58.7257 79.5622 58.5856 79.1016 58.6025 79.0392Z" fill="#B2B2B2"/>
<path fill-rule="evenodd" clip-rule="evenodd" d="M49.3865 74.058C48.7743 72.6824 51.0217 71.2512 49.915 70.7364C45.6495 68.6807 53.929 69.6582 54.9835 70.9507C51.8041 69.3653 50.0997 74.3659 49.983 75.5902C49.9997 75.0467 49.4929 74.2972 49.3865 74.058Z" fill="#B2B2B2"/>
<path fill-rule="evenodd" clip-rule="evenodd" d="M35.287 42.2136C35.6065 44.8162 39.7036 47.4754 43.3501 47.9223C44.1691 49.9983 45.841 50.742 46.6802 52.7865C46.4391 53.2336 45.4595 55.0115 45.1573 55.0828C43.2046 53.3424 42.7426 51.3628 41.98 49.0782C41.6637 49.1028 34.5311 46.5117 35.287 42.2136Z" fill="#B2B2B2"/>
<path fill-rule="evenodd" clip-rule="evenodd" d="M87.8663 43.0147C86.9612 46.8067 82.3075 48.339 79.9395 48.494C79.6439 49.1611 79.1413 49.77 78.6194 49.8651C78.6761 50.2952 78.6482 50.7242 78.5017 51.1307C78.3265 51.6175 80.346 50.9256 80.4361 49.5334C82.4575 49.6399 84.8531 47.7572 86.4556 46.3524C87.5022 45.1666 87.912 43.7609 87.9491 43.221C87.9739 42.9978 87.9136 42.9566 87.8663 43.0147Z" fill="#B2B2B2"/>
<path fill-rule="evenodd" clip-rule="evenodd" d="M65.5087 28.9212C72.4234 29.8735 73.2775 40.1244 71.5016 44.8094C72.6539 45.8976 74.1943 44.8404 74.5054 44.1932C76.052 36.596 71.2514 28.727 65.5087 28.9212Z" fill="white"/>
<path fill-rule="evenodd" clip-rule="evenodd" d="M71.9327 64.3823L72.256 63.4097C72.3278 63.7917 72.6153 63.8961 72.759 64.1391L71.9327 64.3823Z" fill="white"/>
<path fill-rule="evenodd" clip-rule="evenodd" d="M51.7175 78.4452C51.6624 78.4207 51.6145 78.3791 51.5863 78.3214C51.1332 77.3949 51.1487 76.3754 51.6729 74.9796C51.7003 74.9066 51.7544 74.8451 51.8184 74.8134C52.3302 75.4312 52.8741 76.0212 53.3535 76.6662C53.4204 76.756 53.5086 76.9259 53.4351 76.9883L51.7175 78.4452ZM55.8837 74.9733C55.914 75.0296 55.9335 75.089 55.9401 75.1455C55.2816 75.6015 54.6699 76.1351 53.9642 76.513C53.8607 76.5684 53.687 76.504 53.6001 76.3989L52.0018 74.4702C52.726 72.3676 54.5546 72.4143 55.8837 74.9733ZM55.0074 78.9242C55.0084 78.9385 53.9736 79.8198 53.6925 80.0625C53.6178 80.036 53.5398 79.9862 53.4701 79.9327L52.0555 78.8149C52.0311 78.7958 52.0133 78.7743 52.0003 78.7505C52.563 78.2663 53.0946 77.7398 53.6884 77.2977C53.7433 77.2568 53.848 77.2768 53.9027 77.3332C54.2877 77.7296 54.6502 78.1573 54.968 78.6151C55.0286 78.7026 54.9992 78.8214 55.0074 78.9242ZM56.1671 75.6474C56.4684 76.2876 56.63 76.7082 56.8783 77.346C56.4241 77.7217 56.0058 78.1494 55.5152 78.473C55.4453 78.5188 55.3208 78.4865 55.2535 78.4175C54.864 78.0177 54.5024 77.5796 54.1882 77.1111C54.1396 77.0383 54.1499 76.9067 54.2119 76.8637L56.0992 75.5552C56.1295 75.5789 56.1534 75.6092 56.1671 75.6474ZM57.1049 77.8947L57.6044 79.3529C57.3281 79.5989 57.0839 79.8901 56.775 80.0906C56.7243 80.1234 56.6399 80.0606 56.5926 80.0097C56.3072 79.7039 56.0213 79.3895 55.7917 79.0353C55.7453 78.9641 55.746 78.8392 55.8025 78.7918L57.0044 77.7844C57.0502 77.8083 57.0873 77.8453 57.1049 77.8947ZM55.4269 81.2336C55.3795 81.2099 55.3311 81.1792 55.2852 81.1493L54.026 80.3235C54.448 79.9594 54.8429 79.5589 55.2917 79.2314C55.3443 79.193 55.4419 79.1982 55.4948 79.2505C55.7978 79.5491 56.0614 79.8934 56.3147 80.2399C56.3539 80.2933 56.4032 80.3944 56.3596 80.432L55.4269 81.2336ZM57.6852 81.8939C57.6786 81.9475 57.652 81.9959 57.6081 82.0225L57.3511 82.177C57.2581 82.2329 57.1548 82.1777 57.0502 82.1104L55.838 81.4271C56.0964 81.2037 56.3363 80.9547 56.6131 80.7571C56.6503 80.7306 56.7222 80.732 56.7558 80.7723L57.6852 81.8939ZM57.7506 79.8069L58.2583 81.1221C58.2993 81.228 58.3025 81.3265 58.2342 81.4021L57.9799 81.6848C57.6751 81.3071 57.3398 80.9536 57.0654 80.5519C57.0273 80.4961 57.0299 80.397 57.0739 80.359L57.7411 79.7824C57.7454 79.7902 57.7483 79.798 57.7506 79.8069Z" fill="white"/>
<path fill-rule="evenodd" clip-rule="evenodd" d="M47.8449 29.6879C60.316 32.9936 57.9625 39.2651 56.62 44.5539C57.7721 45.6421 58.9892 45.2875 60.1414 44.0014C62.1733 35.6086 57.3083 30.7581 47.8449 29.6879Z" fill="white"/>
<path fill-rule="evenodd" clip-rule="evenodd" d="M62.0768 33.9289L63.4099 33.4078C63.5141 33.3845 63.6109 33.3674 63.7163 33.3654L63.8301 33.3907L63.9433 33.4573L64.0442 33.5531L64.2174 33.7984C64.3343 34.0205 64.4367 34.2394 64.5345 34.4783C64.673 34.8364 64.7925 35.2028 64.9058 35.5767C64.947 35.7148 64.989 35.8535 65.03 35.9909C65.0877 36.2338 65.1253 36.4583 65.15 36.7078C65.17 36.9822 65.1733 37.2453 65.1653 37.516C65.1151 38.7146 64.824 39.744 64.6378 40.9758C64.5024 40.9469 64.2313 40.8687 63.8425 40.915C63.8397 40.4761 63.8317 40.4339 63.8145 39.9918C63.7932 39.5845 63.7571 39.185 63.7056 38.7772C63.6667 38.5098 63.6235 38.2451 63.5733 37.9786C63.4925 37.5789 63.3991 37.1946 63.2898 36.8059C63.1746 36.4192 63.0484 36.0477 62.9051 35.6756C62.7561 35.3038 62.5973 34.9509 62.4228 34.5991L62.0768 33.9289Z" fill="#B2B2B2"/>
</svg>
