<svg width="177" height="212" viewBox="0 0 177 212" fill="none" xmlns="http://www.w3.org/2000/svg"><path opacity=".03" fill-rule="evenodd" clip-rule="evenodd" d="M83.909 16.583l8.953-2.251c.692-.103 1.33-.176 2.022-.183l.73.11.717.284.614.416 1.021 1.063c.668.958 1.24 1.905 1.774 2.937.75 1.551 1.369 3.132 1.941 4.751.212.599.422 1.199.632 1.79.267 1.053.416 2.025.47 3.102a22.864 22.864 0 01-.259 3.491c-.503 3.029-1.293 6.005-1.935 8.997a81.85 81.85 0 00-.787 4.282c-1.474-.61-4.389-.868-6.893-.82.207-2.294-.284-4.666-.495-7a52.23 52.23 0 00-.509-3.455 46.846 46.846 0 00-1.339-5.072 46.79 46.79 0 00-2.016-4.887 48.55 48.55 0 00-2.677-4.653l-1.964-2.902zM49.716 146.238c-1.933-4.33 5.165-8.836 1.67-10.456-13.471-6.472 12.676-3.394 16.006.674-10.04-4.991-15.423 10.751-15.791 14.606.052-1.711-1.549-4.071-1.885-4.824zm-14.725-36.384c1.547 5.176 2.933 7.111 6.803 11.96 4.89 6.126 9.281 7.39 14.254 8.889 2.123.64 10.277 2.014 15.656 5.04-2.022-1.828-6.224-4.092-11.591-6.62-6.078-2.864-10.862-6.379-15.312-12.925-3.921-6.847-4.59-15.643-7.919-24.58-2.843.169-1.904 10.745-1.89 18.236zm63.94 92.74l.792-.642 1.065-.637c1.303-.631 2.639-1.167 3.966-1.759l.833-.436.742-.488.992-.913.597-.754c1.005-1.502 1.594-3.063 2.059-4.8.208-.855.378-1.729.554-2.6l2.243-.846c.555-.288 1.046-.59 1.563-.955l1.008-.836c.734-.69 1.396-1.43 2.063-2.192a59.05 59.05 0 004.761-6.65 62.305 62.305 0 001.53-2.796c1.098-2.282 2.205-4.652 2.634-7.168l.066-.862-.106-1.734-.389-1.759-.621-1.784-.883-2.079 2.674-2.506c.444-.65.796-1.274 1.11-2.002.264-.765.422-1.483.541-2.288l-.029-1.763a26.039 26.039 0 00-.418-2.687c-.513-2.052-1.191-4.056-1.827-6.077l8.934 2.699a1605.819 1605.819 0 01-3.798-9.828c-.549-1.448-1.047-2.876-1.405-4.385-.163-.813-.269-1.6-.322-2.434-.041-2.808.79-5.585 1.534-8.285.307-1.117.594-2.244.861-3.379a28.704 28.704 0 001.585-1.965 27.102 27.102 0 001.749-3.009c1.406-2.986 2.461-6.13 3.254-9.33a32.48 32.48 0 00.756-4.554l.091-1.318c1.702-1.523 3.47-2.988 5.14-4.552l1.875-3.644 1.573-4.08.219-1.419.11-2.277 3.671-.602 3.078-.875 2.898-1.242a36.114 36.114 0 002.699-1.59l1.679-1.243c.981-.827 1.908-1.668 2.765-2.635l.944-1.11c2.216-2.69 4.275-5.545 6.001-8.577a65.08 65.08 0 001.976-3.903 47.153 47.153 0 001.525-3.999l.55-2.031c.382-1.825.687-3.71.588-5.585-.183-2.016-.748-3.915-1.339-5.85-2.422.937-4.867 1.827-7.222 2.89-2.233 1.024-4.446 2.074-6.727 2.976a39.22 39.22 0 01-4.634 1.417l-1.019.204c-.995.124-1.964.211-2.961.259l-1.912-.017a43.094 43.094 0 01-2.917-.284c-2.302-.413-4.143.04-6.43.59l-3.425.896c.247-1.642.523-3.28.693-4.934.142-1.704.165-3.38.085-5.092a43.728 43.728 0 00-.639-5.078 52.073 52.073 0 00-1.498-5.74 74.652 74.652 0 00-1.014-2.818c-1.32-3.33-2.959-6.55-4.829-9.618-2.252-3.602-5.281-6.648-8.612-9.295a51.966 51.966 0 00-4.526-3.089c-8.77-5.123-13.522-6.052-22.963-3.411l-2.526.983-1.195.586-1.14.648-1.082.713-1.012.78-.948.852-.872.919c-.606.754-1.224 1.507-1.66 2.369-.836 1.808-1.441 3.749-2.103 5.614-1.254-1.122-2.479-2.273-3.815-3.312A35.532 35.532 0 0074.785 9.1c-1.863-.98-3.809-1.922-5.799-2.64A101.298 101.298 0 0063.5 4.71a91.944 91.944 0 00-9.023-1.676c-.701-.092-1.404-.175-2.113-.258-2.826-.204-5.66-.358-8.5-.274A87.542 87.542 0 0037.264 3C26.862 4.31 20.461 6.973 13.291 15.074c9.283-1.866 17.433-.655 26.337 1.635a53.748 53.748 0 015.944 2.42l.802.4c5.027 3.123 9.58 6.684 9.732 13.27.352 2.837-.887 4.506-2.52 9.221-.286.864-.53 1.712-.74 2.592l-.347 1.92-2.758 1.145c-.887.449-1.738.923-2.592 1.44-1.138.743-2.225 1.536-3.317 2.345-.987-.439-1.973-.88-2.976-1.295a46.04 46.04 0 00-6.668-2.107c-2.512-.538-5.055-.886-7.636-.845-.648.05-1.291.106-1.934.246-.785.167-1.575.352-2.36.534l-1.574-.144-1.441-.275-1.471-.401-1.495-.515-1.504-.607-2.964-1.44-2.781-1.657-1.273-.882-1.17-.897-1.052-.917-.917-.929-.461-.58c-.605.524-1.099 1.163-1.545 1.822-6.825 13.744.854 29.336 10.163 38.563a147.762 147.762 0 005.878 5.628c2.818 2.535 5.71 5.027 8.866 7.132l1.643 1.028-.098 11.953.153 4.038a31.066 31.066 0 01-.298 2.873c-.391 2.231-1.01 4.362-1.69 6.513l-.411 1.288c-1.169 3.308-2.682 6.477-4.032 9.711a80.436 80.436 0 00-1.518 4.149l-.748 2.781-.263 1.379-.177 1.361-.082 1.344.023 1.316.133 1.295.255 1.265.385 1.241.519 1.207c2.05 3.308 3.765 4.042 7.562 5.186-1.165 2.641-2.87 5.061-5.11 7.279 3.183.27 6.376.635 9.565.717a26.089 26.089 0 002.505-.135l.785-.129 2.562-.618.745 2.593.194.955.11.944-.008 1.824c-.097.775-.214 1.497-.419 2.246a77.788 77.788 0 003.136-2.093 39.783 39.783 0 003.115-2.565l3.044-3.252c.764 1.106 1.47 2.248 2.372 3.24.402.387.797.729 1.235 1.065 3.836 2.683 10.004 6.63 14.105 8.588-.908 1.35-1.24 1.295-2.046 2.706a9.892 9.892 0 00-.804 2.072c-.236 1.059-.286 2.021-.23 3.098.072.823.185 1.633.332 2.443.197.62.232 1.174.224 1.812-.065.735-.207 1.384-.385 2.099l-1.541 1.673a21.156 21.156 0 00-1.305 2.171c-.343.77-.622 1.512-.873 2.312a22.34 22.34 0 00-.461 2.416l-.106 1.668c.006 1.602.067 3.299.483 4.848.552 1.865 1.25 3.663 2.34 5.3a18.753 18.753 0 011.596-4.014l.876-1.272c.439-.496.867-.92 1.377-1.345l.843-.585 4.561-2.85-1.383 5.563-.148 1.014-.04.926.056.85.138.783.214.72.277.664.725 1.188c.52.631 1.035 1.17 1.69 1.668l.288-.582.628-.907.793-.824.961-.705 1.113-.563 1.251-.416.965-.193c1.09-.123 2.169-.171 3.255-.232l1.244-.183 2.071-.64 1.823 3.018.536.745.556.647.581.551.625.459.7.373 1.454.474 1.272.271c1.752.28 3.464.362 5.23.243-.557-1.058-.912-2.174-1.188-3.328l-.133-.863-.045-.883.06-.898.186-.9.333-.881.496-.84.657-.76z" fill="#222D78"/></svg>