<svg width="24" height="24" viewBox="0 0 24 24" fill="none" xmlns="http://www.w3.org/2000/svg"><path d="M19.95 9.35a.75.75 0 00-1.5 0h1.5zM3.606 16.108a.75.75 0 00-1.212.884l1.212-.884zm-.733-.297a.75.75 0 10.254 1.478l-.254-1.478zM5.7 15.65l.238.711a.75.75 0 00.295-1.239l-.533.528zm-.9-10.8l.66-.355a.75.75 0 00-1.27-.082l.61.437zm5.4 4.5l-.177.729a.75.75 0 00.927-.704l-.75-.025zm8.1-2.7l-.626.413a.75.75 0 00.626.337v-.75zm2.7 0l.624.416A.75.75 0 0021 5.9v.75zm-2.424 2.284a.75.75 0 101.248.832l-1.248-.832zm-.126.416c0 3.012-.86 5.521-2.4 7.266C14.52 18.35 12.26 19.4 9.3 19.4v1.5c3.34 0 6.03-1.2 7.875-3.291 1.835-2.08 2.775-4.971 2.775-8.259h-1.5zM9.3 19.4c-1.655 0-2.763-.428-3.595-1.017-.856-.605-1.467-1.41-2.1-2.275l-1.21.884c.624.856 1.363 1.851 2.443 2.616 1.103.78 2.517 1.292 4.462 1.292v-1.5zm-6.173-2.11c.024-.005.043-.01.049-.01l.02-.006a.757.757 0 00.037-.011l.033-.01.093-.03.312-.104a699.726 699.726 0 002.152-.72l.085-.028.023-.007.005-.002h.002L5.7 15.65l-.238-.711H5.46l-.006.002-.022.008-.085.028-.303.102-.92.308a728.78 728.78 0 01-1.234.41l-.085.028-.018.006.005-.002a.51.51 0 01.033-.008l.048-.01.254 1.478zm3.106-2.167C3.49 12.349 3.284 8.256 5.41 5.287l-1.22-.874c-2.542 3.551-2.291 8.46.977 11.764l1.066-1.054zM4.14 5.205c1.18 2.195 3.4 4.27 5.884 4.874l.354-1.458C8.41 8.143 6.495 6.418 5.461 4.495l-1.322.71zm6.81 4.17c.038-1.136.439-2.075 1.075-2.725.632-.646 1.538-1.05 2.676-1.05V4.1c-1.513 0-2.814.546-3.748 1.5-.93.95-1.453 2.261-1.502 3.725l1.5.05zM14.7 5.6c.806 0 1.396.153 1.849.395.451.24.813.594 1.125 1.068l1.252-.826c-.42-.638-.957-1.185-1.67-1.566-.713-.38-1.557-.571-2.556-.571v1.5zm3.6 1.8H21V5.9h-2.7v1.5zm2.076-1.166l-1.8 2.7 1.248.832 1.8-2.7-1.248-.832z" fill="#fff"/></svg>