<svg width="120" height="120" viewBox="0 0 120 120" fill="none" xmlns="http://www.w3.org/2000/svg"><path d="M112.957 59.98c0 29.258-23.719 52.977-52.977 52.977-29.258 0-52.977-23.719-52.977-52.977 0-29.258 23.718-52.977 52.977-52.977 29.258 0 52.977 23.718 52.977 52.977z" fill="#222D78" stroke="#fff" stroke-miterlimit="10"/><path fill-rule="evenodd" clip-rule="evenodd" d="M94.297 59.82c0 18.953-15.364 34.318-34.317 34.318S25.662 78.773 25.662 59.82c0-18.953 15.365-34.317 34.318-34.317 18.953 0 34.317 15.364 34.317 34.317z" fill="#fff"/><path d="M11.932 46.82l2.292-1.375 1.832.459-.612 2.446-.613-.154-.453-.764-.918 3.665.23.383 1.22.306.383-.23 1.07-4.272 1.526-.921 2.446.612 1.374 2.291-1.148 4.586-2.291 1.374-1.22-.305.613-2.446.606.151.383-.23.688-2.745-.23-.384-.913-.228-.384.23-.994 3.972-1.908 1.144-2.752-.689-1.375-2.291 1.148-4.586zM17.667 34.095l2.587-.667 1.627.96L20.6 36.56l-.545-.321-.328-1.295-1.76 2.982.111.433 4.337 2.559.433-.111 1.117-1.894-.111-.432-.81-.479 1.28-2.171 1.356.8.666 2.587-2.08 3.526-2.588.667-5.426-3.202-.667-2.588 2.082-3.526zM37.5 15.88l1.181 1.862-.528.334 3.035 4.788.528-.335 1.18 1.863-3.458 2.192-1.18-1.863.533-.338-2.192-3.459-.584 2.608-.534.338-2.608-.584 2.193 3.458.534-.338 1.18 1.863-3.458 2.192-1.18-1.863.533-.338-2.53-3.993.29-1.298-1.328.842-1.18-1.863 2.396-1.519 3.91.881.877-3.915 2.39-1.516zM48.735 18.902l2.773-.605-1.991-2.47-.782 3.075zM49.33 12l5.303 6.578.768-.168.538 2.463-3.383.739-.202-.927.477-.744-4.31.94-.433 1.705-2.305.503-.538-2.463.769-.168 2.08-8.189L49.33 12zM63.224 15.383l3.132.371.351-.276.149-1.248-.277-.352-3.132-.371-.223 1.876zm5.214-3.823l1.1 1.396-.371 3.132-1.397 1.1-.037.314.712 1.987.628.074-.26 2.19-2.343-.277-1.192-3.31-2.35-.28-.371 3.125-3.439-.407.26-2.19.628.074.557-4.694 1.045-.824-1.562-.185.26-2.19 8.132.965zM79.48 14.887l-.804 2.054-.588-.23-2.067 5.277.588.23-.804 2.054-3.813-1.493.805-2.054.588.23 1.724-4.4 1.22-.534-1.465-.573.804-2.054 3.813 1.493zM94.111 24.168l-1.336 1.754-.497-.378-3.434 4.509.498.379-1.336 1.754-3.258-2.48 1.336-1.755.503.383 2.48-3.258-2.647.359-.503-.383-.359-2.648-2.48 3.258.502.383-1.335 1.755-3.258-2.48 1.336-1.755.503.383 2.863-3.761 1.319-.179-1.252-.953 1.336-1.755 2.258 1.72.533 3.971 3.976-.538 2.252 1.715zM103.8 36.855l-2.371 1.56-1.382-2.101.528-.347-1.733-2.635-1.579 1.038.522.793.528-.348 1.382 2.1-2.635 1.734-1.382-2.1.528-.348-.521-.792-1.578 1.038 1.733 2.635.528-.348 1.382 2.1-2.37 1.56-5.193-7.891 1.843-1.212.521.792 3.949-2.598 1.303.269-1.038-1.579 1.843-1.212 5.192 7.892zM109.137 52.06l-2.13.572-.164-.611-3.473-1.999-2.001 3.467.164.61-2.13.572-1.143-4.26 2.13-.571.164.61.888-1.54-1.541-.895.163.61-2.13.571-1.06-3.954 2.13-.572.163.61 3.468 2.002 1.784-3.082.385.216-.326-1.214 2.13-.571.979 3.65-2.13.57-.164-.61-1.11 1.934 1.927 1.112-.163-.61 2.13-.572 1.06 3.955zM44.442 96.932l-1.084 1.92-.545-.306-3.866 1.076 1.08 3.86.544.307-1.084 1.92-3.84-2.168 1.084-1.92.55.31-.477-1.712-.275-.156-1.289.354-.155.275.55.311-1.084 1.92-3.29-1.857 1.084-1.92.55.31 2.324-4.116 1.282-.357-1.37-.774 1.084-1.92 3.29 1.857-1.083 1.92-.55-.31-1.395 2.47 3.865-1.075-.55-.31 1.084-1.921 3.566 2.012zM48.137 106.318l2.143.487.378-.238.979-4.301 1.133-.707-3.377-.768-.378.238-1.117 4.911.239.378zm4.814-6.98l1.423 2.262-1.397 6.143-2.261 1.423-3.993-.908-1.423-2.261 1.397-6.143 2.26-1.424 3.994.908zM61.807 99.948l.1 2.203-.63.029.258 5.662 2.203-.101-.043-.94 1.888-.086.143 3.143-7.55.345-.1-2.203.632-.029-.216-4.721.897-.983-1.572.071-.1-2.203 4.09-.187zM72.272 98.153l.583 2.127-.61.167 1.497 5.467.61-.167.582 2.127-3.95 1.081-.582-2.127.61-.167-1.248-4.559.659-1.156-1.517.416-.583-2.127 3.95-1.082zM83.46 92.775l1.087 1.919-.544.308 2.793 4.932.544-.308 1.087 1.919-2.88 1.63-5.551-3.733 1.862 3.288.55-.311 1.086 1.919-3.288 1.862-1.087-1.919.55-.312-2.328-4.113.355-1.283-1.37.775-1.086-1.919 3.288-1.862 4.68 3.146-.935-1.65.355-1.283-1.369.776-1.087-1.92 3.289-1.861z" fill="#fff"/><path fill-rule="evenodd" clip-rule="evenodd" d="M69.746 95.977l2.885-.79-1.552 2.528-2.11.578.777-2.316z" fill="#fff"/><path fill-rule="evenodd" clip-rule="evenodd" d="M49.55 26.525a25.15 25.15 0 00-3.098.035c-.527.04-1.05.095-1.576.169-.521.078-1.036.173-1.553.286l-.51.123c-.671.175-1.337.376-1.98.64-1.384.597-2.21 1.21-3.317 2.236-.307.292-.602.591-.888.907-.462.529-.92 1.065-1.36 1.615-.275.355-.539.713-.797 1.08l-.717 1.072c3.174-.853 7.626-1.059 11.298.226 2.638.924 4.749 1.893 4.03 4.557l-.59 1.64c-.283.148-.565.298-.84.464l-.255.158c-.286-.105-.575-.209-.866-.305-.46-.147-.92-.275-1.392-.385a13.991 13.991 0 00-1.953-.303c-.284-.019-.57-.033-.856-.042l-.824.06-.707.146-1.474-.408c-.373-.183-.742-.37-1.103-.579a9.308 9.308 0 01-.737-.49 7.853 7.853 0 01-.414-.347l-.145-.139-1.983-1.916c-3.684 3.041-3.935 7.605-2.61 11.392 1.486 4.247 4.8 7.003 8.484 10.186-.01 1.077-.051 2.138-.015 3.216.01.281.01.553-.01.836a9.76 9.76 0 01-.083.608l-.084.395a16.789 16.789 0 01-.567 1.843c-.392 1.007-.838 1.993-1.238 3a22.78 22.78 0 00-.425 1.197 16.755 16.755 0 00-.39 1.582l-.107 1.144.071 1.173.127.633.187.61.274.638c.174.28.352.56.545.828.166.222.008.046.191.256-.493 1.272-1.644 2.467-2.566 3.597 2.42.487 4.812.762 7.437.702l-1.314 5.113a776.838 776.838 0 014.152-2.636 36.093 36.093 0 001.548-1.026c.236-.171.466-.346.695-.522.252.157.5.31.76.454.654.352 1.112.694 1.792 1-.276 1.073-.094 1.941.077 3.04l-.37.514a8.898 8.898 0 00-.348.615c-.1.215-.19.428-.275.65-.078.227-.146.45-.206.681l-.102.466c-.048.29-.089.578-.109.872a9.055 9.055 0 00.079 1.823c.027.163.058.325.092.488.07.284.164.558.262.836.795 2.081 2.357 3.34 3.533 5.226l.751-2.333c.451.367.903.732 1.365 1.089.402.31.809.62 1.214.93.645-1.303.65-2.52 2.124-2.621l.384.452c.134.136.27.262.417.387.148.113.297.217.457.317.165.093.327.176.501.255l.36.136c.26.08.517.146.787.196.176.031.355.06.533.087.424.058.851.073 1.28.075.676-.008 1.35-.053 2.026-.095l1.848-.106-1.197-2.406c-.27-.8-.049-1.044.644-1.567.264-.126.509-.27.753-.429l.386-.298.178-.164c.148-.156.284-.31.412-.483.178-.252.34-.507.49-.777.141-.27.264-.543.373-.828.069-.192.13-.384.191-.577l.513-.33c.19-.142.37-.287.547-.441.176-.162.344-.328.51-.5.383-.42.734-.858 1.075-1.312.449-.604.854-1.233 1.234-1.882l.323-.593c.438-.874.83-1.787 1.018-2.748.167-.95.062-1.706-.142-2.64l.223-.349c.488-.82.67-1.584.803-2.518l3.569 1.08c-1.003-2.553-2.008-5.105-2.98-7.669a7.916 7.916 0 01-.193-.613l-.044-.22-.024-.227v-.227c.02-.198.048-.39.083-.585.127-.63.321-1.244.485-1.864l.44-.634.356-.6.32-.623.415-.97.236-.666.527-1.958.155-.906 1.3-1.17.823-1.608.58-1.506.739-.22c.442-.149.871-.335 1.292-.54.24-.123.473-.253.705-.39.228-.143.45-.292.67-.447.217-.161.427-.327.633-.5l.59-.547.366-.39 1.203-1.515 1.065-1.607.273-.48c.284-.529.54-1.068.776-1.62l.188-.466c.13-.365.246-.73.35-1.101.073-.284.138-.565.195-.851.05-.286.089-.57.12-.858l.027-.57-.018-.565a7.336 7.336 0 00-.1-.718 23.843 23.843 0 00-.534-2.012 616.72 616.72 0 01-.555-1.83c-1.404.538-2.813 1.066-4.2 1.643-.728.319-1.439.67-2.171.977-.23.09-.459.176-.69.256-.241.075-.48.143-.725.203l-.507.072-.492.024c-.246-.004-.471-.129-.715-.149l-.253-.028-.992-.062c-.02-.35-.04-.7-.072-1.048a18.329 18.329 0 00-.224-1.487 19.952 19.952 0 00-.362-1.456 22.07 22.07 0 00-.489-1.422 25.413 25.413 0 00-.6-1.392c-.285-.596-.589-1.18-.92-1.75l-.145-.242c-.183-.302-.39-.59-.597-.873a17.763 17.763 0 00-.774-.942 18.26 18.26 0 00-.85-.872c-.303-.28-.613-.55-.93-.812a20.494 20.494 0 00-1.827-1.282c-.331-.2-.663-.39-1.001-.572l-.689-.337-.703-.294-.718-.247c-.301-.086-.6-.17-.907-.229a10.069 10.069 0 00-3.006-.084c-.203.031-.403.066-.603.106l-1.495.381-1.006.393c-.502.266-.998.534-1.468.853l-.244.177a7.71 7.71 0 00-1.123 1.083l-.294.366c-.293-.157-.585-.315-.879-.465a20.599 20.599 0 00-2.055-.887c-.396-.142-.79-.27-1.193-.384a24.86 24.86 0 00-2.662-.586 28.207 28.207 0 00-2.326-.27l-.387-.026z" fill="#B2B2B2"/><path fill-rule="evenodd" clip-rule="evenodd" d="M35.062 38.568l.751.943.223.213.016.014c.155.14.315.273.48.401l.015.013.015.011c.271.2.55.385.84.558l.018.01c.385.224.782.426 1.18.621l.11.054 1.898.526.933-.194.668-.047c.246.008.493.02.74.035.59.045 1.175.15 1.753.275.43.1.856.22 1.277.352.275.092.548.191.822.29l.599.22.79-.49c.247-.15.504-.285.761-.42l.448-.233.776-2.16.299-1.106.003-.154c.004-.15.005-.301-.001-.452l-.002-.024a4.527 4.527 0 00-.034-.328l-.014-.112-.13-.402-.16-.338-.182-.29-.188-.248-.033-.036a7.475 7.475 0 00-.48-.49l-.028-.027-.458-.38-.965-.598a19.29 19.29 0 00-.928-.426l-.017-.007-.735-.29-.061-.016c-.491-.14-.986-.277-1.48-.404a26.489 26.489 0 00-1.85-.39l-.025-.005c-.314-.048-.63-.09-.946-.125l-.015-.002-.015-.001c-.33-.03-.663-.051-.994-.06-.78-.014-1.56-.003-2.334.037-.741.044-1.48.114-2.211.208l-.105.015.06-.078c.423-.529.863-1.044 1.309-1.554.26-.285.53-.56.81-.826.962-.893 1.715-1.46 2.93-1.985.58-.237 1.185-.418 1.791-.578l.484-.116c.48-.105.962-.193 1.448-.266.492-.069.987-.121 1.483-.16a23.89 23.89 0 012.922-.033l.378.024c.737.055 1.472.142 2.207.258.848.139 1.686.322 2.515.553.369.105.735.224 1.1.354.654.242 1.292.517 1.916.828.28.143.56.295.843.447l.961.518.961-1.199c.274-.319.576-.614.907-.875l.207-.15c.403-.272.834-.506 1.264-.734l.861-.336 1.382-.352c.165-.033.33-.062.496-.087a8.73 8.73 0 012.588.075c.252.049.501.12.748.19l.645.222.629.263.63.308c.308.168.613.342.913.523.583.368 1.153.757 1.692 1.186.292.241.578.49.856.748.267.257.526.521.776.794.243.277.477.562.701.854.183.25.365.502.526.766l.138.233c.312.536.598 1.086.868 1.65.2.427.388.862.563 1.306.166.436.319.878.454 1.324.129.444.24.893.335 1.345.088.452.156.906.206 1.363.03.332.05.664.069.996l.042 1.425c1.088-.03 1.154-.155 2.23-.14l1.006.16.592-.028.632-.089.064-.016c.27-.066.54-.141.805-.225l.02-.006.018-.006c.249-.087.497-.18.742-.276l.023-.01c.736-.307 1.45-.66 2.18-.98.941-.392 1.892-.76 2.844-1.124l.154.505c.19.626.37 1.256.505 1.895.035.181.058.365.076.548l.015.472-.024.484c-.026.242-.06.484-.1.724-.052.252-.11.503-.173.753-.094.33-.199.658-.313.983l-.172.428a19.161 19.161 0 01-.715 1.492l-.243.429-1.011 1.524-1.135 1.43-.3.32-.532.493c-.176.146-.355.288-.538.425a13.8 13.8 0 01-.583.388c-.201.119-.405.232-.612.34a9.65 9.65 0 01-1.102.461l-1.326.395-.784 2.033-.684 1.338-1.455 1.309-.22 1.283-.498 1.852-.206.582-.382.892-.28.548-.314.528-.542.781-.057.217c-.17.647-.371 1.28-.503 1.938l-.004.022a9.028 9.028 0 00-.097.683l-.006.062-.001.36.038.352.063.317.011.043c.066.24.141.476.225.71l.007.02a499.629 499.629 0 002.02 5.222l-2.467-.747-.296 2.078a5.87 5.87 0 01-.127.549 3.532 3.532 0 01-.161.43c-.08.156-.164.31-.254.46l-.495.774c.205.939.412 1.699.246 2.65-.165.833-.516 1.635-.895 2.392l-.304.556c-.352.602-.729 1.187-1.145 1.748-.31.411-.632.816-.983 1.2-.14.144-.282.285-.428.422a8.131 8.131 0 01-.424.341l-.865.558-.138.44c-.055.173-.11.345-.17.516a6.678 6.678 0 01-.303.669 7.124 7.124 0 01-.398.633 3.597 3.597 0 01-.275.321l-.105.097-.297.23a5.208 5.208 0 01-.546.31c-2.419.938-1.968 2.26-.923 3.967-.618.039-1.236.08-1.852.086a8.402 8.402 0 01-1.092-.061c-.161-.025-.322-.05-.482-.08a5.468 5.468 0 01-.598-.146l-.278-.105a5.09 5.09 0 01-.335-.172 4.781 4.781 0 01-.31-.215 5.089 5.089 0 01-.275-.253l-.775-.915c-1.851.353-2.13.631-3.18 2.36-1.052-.376-2.336-1.757-2.396-3.015l-.988 2.383-1.382-2.215a13.118 13.118 0 01-.392-.918 7.295 7.295 0 01-.215-.682 9.17 9.17 0 01-.077-.4 7.871 7.871 0 01-.065-1.554c.016-.237.05-.473.089-.708l.087-.406c.05-.185.107-.368.168-.55.067-.176.14-.35.22-.52.083-.16.17-.316.265-.47l.645-.898c-.336-1.496-.665-2.613.172-3.733-1.523-.683-2.822-1.762-4.238-2.642l-.718.55c-.22.168-.439.335-.664.498-.481.341-.98.663-1.484.982l-1.383.875.889-3.458c-2.267.155-4.577.096-6.302-.38.779-.855 1.451-1.842 1.765-2.698-.56-.339-.72-.515-1.118-1.042-.154-.216-.298-.44-.439-.665l-.209-.49-.149-.482-.097-.484-.06-.99.093-.98c.026-.13.054-.26.082-.39.075-.335.162-.669.262-1.001.12-.375.253-.745.394-1.112.4-1.006.846-1.993 1.24-3.002l.006-.017c.241-.649.445-1.312.61-1.984l.005-.02.093-.44.004-.025c.039-.227.07-.456.095-.685l.003-.025.001-.024c.022-.324.024-.645.012-.969-.036-1.056-.016-2.115-.008-3.175l.005-.64-.515-.388c-.34-.257-.68-.516-1.012-.782a41.544 41.544 0 01-1.39-1.195c-.698-.64-1.38-1.3-2.054-1.973-1.464-1.5-2.902-3.34-3.654-5.782-.88-2.855-.791-6.387 1.738-8.978z" fill="#fff"/><path fill-rule="evenodd" clip-rule="evenodd" d="M60.214 32.872l2.835-.715c.219-.033.42-.056.64-.059l.231.035.227.09.194.133.324.337c.211.305.392.606.561.934.238.492.434.994.615 1.509l.2.568c.085.335.132.643.149.986a7.27 7.27 0 01-.082 1.109c-.16.962-.41 1.907-.613 2.858a26.29 26.29 0 00-.249 1.36c-.466-.194-1.39-.276-2.182-.26.065-.73-.09-1.483-.157-2.224a16.637 16.637 0 00-.161-1.098 14.922 14.922 0 00-.424-1.611 14.9 14.9 0 00-.639-1.552c-.256-.51-.534-.996-.847-1.478l-.622-.922zM49.387 74.058c-.612-1.376 1.635-2.807.528-3.322-4.265-2.056 4.014-1.078 5.069.215-3.18-1.586-4.884 3.415-5 4.639.016-.544-.49-1.293-.597-1.532zM44.724 62.5c.49 1.644.929 2.259 2.154 3.8 1.548 1.945 2.939 2.347 4.514 2.823.672.203 3.254.64 4.957 1.601-.64-.58-1.97-1.3-3.67-2.103-1.925-.91-3.44-2.026-4.849-4.106-1.241-2.175-1.453-4.969-2.507-7.808-.9.054-.603 3.413-.599 5.793zm20.247 29.46l.25-.204.337-.203c.413-.2.836-.37 1.256-.558l.264-.139.235-.155.314-.29.189-.24c.318-.476.505-.973.652-1.524.066-.272.12-.55.175-.826l.71-.269c.177-.091.332-.187.496-.303l.319-.266c.232-.22.442-.454.653-.696a18.776 18.776 0 001.508-2.112c.168-.292.33-.587.484-.889.348-.725.698-1.478.834-2.277l.021-.274-.034-.55-.123-.559-.196-.567-.28-.66.847-.796c.14-.207.252-.405.351-.636.084-.243.134-.471.171-.727l-.009-.56a8.27 8.27 0 00-.132-.854c-.163-.651-.377-1.288-.579-1.93l2.83.857c-.404-1.039-.806-2.08-1.203-3.122-.174-.46-.332-.913-.445-1.392a5.757 5.757 0 01-.102-.773c-.013-.893.25-1.775.486-2.632.097-.355.188-.713.272-1.074.176-.204.343-.404.502-.624.207-.309.387-.622.554-.956.445-.948.78-1.947 1.03-2.963.112-.48.196-.954.24-1.447l.029-.419c.538-.484 1.098-.95 1.627-1.446l.594-1.157.498-1.297.07-.45.034-.723 1.162-.192.975-.278.918-.394c.294-.158.573-.322.854-.505l.532-.395c.31-.263.604-.53.875-.837l.3-.353a19.48 19.48 0 001.9-2.724c.222-.408.43-.817.625-1.24.18-.42.34-.835.483-1.27l.174-.646c.121-.58.218-1.178.187-1.774-.058-.64-.237-1.243-.424-1.858-.767.298-1.541.58-2.287.918-.708.325-1.408.659-2.13.945-.487.181-.964.33-1.468.45l-.322.065c-.316.04-.622.067-.938.082l-.605-.005c-.312-.02-.615-.05-.924-.09-.729-.131-1.312.013-2.036.187l-1.085.285c.079-.522.166-1.042.22-1.568a12.47 12.47 0 00.027-1.617 13.957 13.957 0 00-.202-1.613 16.58 16.58 0 00-.475-1.823c-.1-.3-.207-.598-.321-.896a20.162 20.162 0 00-1.53-3.055c-.712-1.144-1.671-2.111-2.726-2.952a16.395 16.395 0 00-1.433-.982c-2.777-1.627-4.282-1.922-7.271-1.083l-.8.312-.378.186-.361.206-.343.227-.32.248-.3.27-.277.292c-.192.24-.387.479-.525.752-.265.575-.457 1.191-.666 1.784-.397-.357-.785-.722-1.208-1.052a11.24 11.24 0 00-1.252-.79c-.59-.312-1.206-.61-1.837-.84a31.99 31.99 0 00-1.737-.555 29.034 29.034 0 00-3.526-.614c-.895-.065-1.792-.114-2.692-.087-.699.026-1.392.078-2.089.158-3.294.416-5.32 1.262-7.591 3.835 2.94-.592 5.52-.208 8.34.52.647.22 1.267.474 1.882.768l.253.128c1.592.992 3.034 2.123 3.082 4.215.111.901-.28 1.431-.798 2.93-.09.273-.168.543-.234.822l-.11.61-.873.364c-.281.143-.55.293-.821.457-.36.236-.705.488-1.05.745-.313-.139-.625-.28-.943-.411-.69-.276-1.384-.5-2.111-.67-.795-.17-1.6-.28-2.418-.268a4.451 4.451 0 00-.612.078c-.25.053-.5.112-.748.17l-.498-.046-.457-.087-.465-.128-.474-.163-.476-.193-.938-.457-.881-.527-.403-.28-.37-.285-.334-.291-.29-.295-.146-.185c-.192.167-.348.37-.49.58-2.16 4.365.271 9.318 3.219 12.25a46.983 46.983 0 001.861 1.787c.892.805 1.808 1.597 2.808 2.266l.52.326-.031 3.797.048 1.283a9.886 9.886 0 01-.094.912c-.124.71-.32 1.386-.535 2.07l-.13.408c-.37 1.051-.85 2.058-1.277 3.085-.173.437-.333.873-.48 1.318l-.238.884-.083.438-.056.432-.026.427.007.418.042.411.081.402.122.394.164.384c.65 1.05 1.193 1.284 2.395 1.647-.37.839-.909 1.608-1.618 2.312 1.008.086 2.019.202 3.029.228.269-.002.526-.015.793-.043l.248-.04.812-.197.235.823.062.304.035.3-.003.58c-.03.245-.068.475-.132.713.335-.215.668-.435.992-.665.346-.258.67-.524.987-.815l.964-1.033c.241.351.465.714.75 1.03.128.122.253.23.392.338 1.214.852 3.168 2.106 4.466 2.727-.288.43-.392.412-.648.86a3.15 3.15 0 00-.254.658c-.075.337-.09.642-.073.984.023.262.059.52.105.777.062.197.073.372.07.575-.02.234-.065.44-.121.667l-.488.531a6.744 6.744 0 00-.413.69c-.109.245-.197.48-.276.735-.064.257-.111.505-.147.767l-.033.53c.002.509.02 1.048.153 1.54.175.592.396 1.163.74 1.683a5.97 5.97 0 01.506-1.275l.277-.404c.14-.157.275-.292.437-.427l.266-.186 1.445-.905-.438 1.767-.047.322-.013.294.018.27.044.249.067.228.088.212.23.377c.164.2.328.371.535.53l.09-.185.2-.288.251-.262.304-.224.353-.179.396-.132.305-.061c.346-.04.687-.054 1.031-.074l.394-.058.656-.203.577.958.17.237.176.206.184.175.198.145.221.119.46.15.403.087a7.256 7.256 0 001.657.077 4.475 4.475 0 01-.377-1.057l-.042-.275-.014-.28.02-.285.058-.286.105-.28.157-.267.209-.241z" fill="#222D78"/><path fill-rule="evenodd" clip-rule="evenodd" d="M57.544 72.336c-.17-.673-1.039-2.149-4.796-3.469-1.9-.956-3.509-2.272-4.918-4.351-1.241-2.175-1.453-4.97-2.507-7.809-.997.06-.526 4.17-.61 6.518-.046 1.319-.196 3.117-.96 4.186-.831 1.164-3.037 4.16-1.398 6.453-.127-1.102.95-2.708 2.258-1.978 1.387 1.215.165 4.087-.636 4.495.797-.212 2.358-.343 2.726-2.314.257-1.372.63-1.056.91-1.865.226.604-.543 1.46.142 2.437.444.635.34 2.249.126 2.618.856-.635 1.141-1.998 1.403-2.598.055-.127.145-.465.076-.665.205.314.753.463.623 1.536.21-2.09 1.23-3.436 2.139-4.672 3.317-2.254 5.622 4.102 6.252 6.977.186 1.316.902 4.113 1.602 5.19.635 1.102 3.306 2.311 4.877 2.253 1.564-1.776 1.493-2.613 1.498-3.363.148-.64-.1-1.671-.602-2.134-.54-.604-2.278-1.445-2.649-.985-.052.064.007.124.161.18.565.204 1.909.712 1.666 1.337-.09-.538-1.789-.857-2.111-.965-.653-.098-.614-1.196.178-1.397 1.827-.462 3.562.851 4.248 2.453.62-.294 1.242-1.415 3.255-1.11.839.075 1.02.773.61 1.248a.918.918 0 01-.4.268c-.275.084-1.115.027-1.63.218.2-.185.918-.487 1.202-.493.464-.01.4-.344.245-.397-1.257-.434-2.784.918-3.26 1.917-.215.448-.47 2.187-2.025 3.464 1.886.398 2.94.911 3.963-.303.929-1.113 2.539-2.91 2.702-4.483.001-1.006-1.02-2.497-1.205-3.052-1.445-2.707-2.77-8.876-1.88-11.017.205.282.959.49 1.244.377-.227.35-.994 3.476-.425 5.753.058.033.25-1.844.307-1.877.443-2.213 1.801-3.95 3.326-5.265.333-.287.238-.796.518-1.143-.675.26-1.678.656-2.336.57-.185.147-.93.981-1.667.8-1.382-.34-1.533-1.023-.887-3.343-.078 1.308 1.321 1.712 1.558 1.604.55-.252 1.144-.099 1.344-1.711.372-1.098.686-1.913 1.549-2.72 2.474-2.138 6.444-4.43 5.331-6.74-.864-.61-1.263-1.338-1.075-2.784.216-1.663-2.146-3.412-3.325-4.14-2.135 1.25-7.255.552-7.926-2.115-.563-.172-1.38.103-1.619.512-.16.125-.297.737-.29.926.01.3.138.686.352 1.117.1.203.31.774.23.99-.045.163-.336-.325-.388-.345-.112-.153-.338-.991-.78-1.326-.188-.439-2.46-1.261-3.047-1.147-.092.257 0 .114-.11.31-1.725 2.543-6.216 1.196-8.05-.114-.373-.35-.311-.128-.496-.463-.948-.193-3.278 1.574-3.785 2.562 1.09 2.797.514 5.286-1.529 7.842.3.913.508 4.946 1.077 7.063.563 3.344 3.844 5.728 5.648 6.609 2.138.977 4.411 3.171 3.976 3.87zM63.1 92.126c-1.164-.428-.437-3.138-.008-3.917-.177.296-1.065 1.478-2.05 2.296-1.186.984-3.054.427-3.622 1.24.663-1.526 1.788-3.028 1.256-4.24-.601 1.525-2.898.997-4.006 2.21.1-1.584.503-1.184.873-2.453.242-.83.133-1.541.051-1.889-.235-.997-.026-.947.334-1.416.297.027 1.553.715 1.793-.063 3.312 3.019 4.912 2.829 6.151 3.313.913.201 2.124.44 2.992.271.189.428-.446 1.844-1.411 2.046-2.266.617-2.498 2.583-2.354 2.602z" fill="#fff"/><path fill-rule="evenodd" clip-rule="evenodd" d="M45.157 55.083c-1.952-1.74-2.246-3.72-3.008-6.005-.32.025-7.793-2.627-6.833-7.017 1.317 1.033 3.67 2.63 5.507 2.615 2.611-.272 3.426-.606 5.83.982 1.908 1.844.992 5.426.067 7.055-.139.26-1.24 2.294-1.563 2.37z" fill="#fff"/><path fill-rule="evenodd" clip-rule="evenodd" d="M59.392 78.29c-.07-.044-.128-.088-.185-.12 0-.152.254-.233.416-.624.612-.806.57-.685 1.182-1.588 1.884-3.09 2.707-6.419 1.83-9.9.002.036.92.291 1.563.069.267 1.27-.678 5.255-1.07 6.348-.333.9-2.605 5.566-3.736 5.814z" fill="#222D78"/><path fill-rule="evenodd" clip-rule="evenodd" d="M70.548 75.421c-.44-1.024-.374-2.204-.378-2.238-.098-.836.23-2.04.52-2.933.419-1.287.97-2.21 1.61-2.851.336-.336.686-.561 1.073-.786-.324.196-.479.64-.437 1.349.078 1.307.66 3.128 1.012 3.425-1.297-.023-2.686-.538-2.686.757.465 1.054 2.442 1.77.825 4.434.33-.736-.814-2.362-1.539-1.157zM76.378 46.28c1.047-.8 2.867-1.478 4.197-1.53 2.907.583 6.513-.98 7.291-1.735.253-.245-.005 1.745-1.41 3.337-1.603 1.405-3.998 3.288-6.02 3.182-.09 1.392-2.11 2.084-1.934 1.597.649-1.803-1.024-4.044-2.124-4.852z" fill="#fff"/><path fill-rule="evenodd" clip-rule="evenodd" d="M67.779 60.614c-3.513-.326-5.511-3.564-7.119-6.577-.37-.664-1.013-1.913-1.094-2.555.705-.663 1.506 1.76 1.76 2.152 1.41 3.274 3.937 5.724 8.004 4.963 1.939-.746 1.874-2.735 2.076-4.94.07-.336.027-.608.235-.858.335.032.508.054.716.49-.268 2.361-.77 7.325-4.578 7.325zM64.891 62.535c1.504 2.124-.236 3.522-2.936 2.35-1.04-.63-1.303-1.4-1.973-2-2.528.789-6.641-.765-7.223-1.576-2.068-1.752-1.63-3.34-1.525-5.701.08-.326.162-.435.162-.544-1.215-1.554-1.306-1.715-1.602-3.387-.057-.326-.216-.82.163-.985.806-.353 1.068 2.197 1.161 2.49.855 1.534 2.29 2.198 3.93 3.155 1.884.837 1.844 1.745 3.16 3.464 1.157 1.751 1.985 2.093 3.855 3.432 1.605.931 3.197.32 2.828-.697z" fill="#222D78"/><path fill-rule="evenodd" clip-rule="evenodd" d="M52.112 55.76c.18.36 2.074 1.4 2.611 1.492-1.19 1.401-1.157 2.778-.268 4.55-3.522-1.84-2.378-5.01-2.343-6.041zM75.117 62.506c.286-.521.181-2.789-.24-3.055.254-.141.807-.866 1.107-.92.358.555-.532 3.551-.867 3.975zM58.115 62.479c.225-.06.375-.645.428-.88-.076.154.317.708.67.894-.127.054-.555.144-1.098-.014z" fill="#fff"/><path fill-rule="evenodd" clip-rule="evenodd" d="M56.22 61.524c.809-.192 1.138-1.186 1.172-1.305.275.045.571.43.644.8.343 1.737-2.242 1.552-2.817.681-.925-1.4-.658-2.981.243-4.06 1.22.71 1.439 2.5.759 3.884zM72.97 61.852c.638.487.687 1.238.653 1.391-.087.396.525-1.284-.127-2.474-.163-.298.772-1.004 1.032-1.077.112 1.008.643 3.205-.742 4.109-.787.305-1.29-.385-1.266-1.063.017-.475.254-1.035.45-.886z" fill="#B2B2B2"/><path fill-rule="evenodd" clip-rule="evenodd" d="M50.206 50.675c.558.333.832 2.257.912 2.507.855 1.534 2.29 2.198 3.93 3.155 1.883.838 1.843 1.745 3.16 3.464 1.156 1.751 1.985 2.143 3.855 3.482 1.591.923 3.17.28 2.836-.722a1.948 1.948 0 00-.653-.705c.207 1.017-.575 1.198-2.18.267-1.344-.713-2.253-1.172-3.409-2.924-1.317-1.718-1.48-2.626-3.363-3.463-1.68-.867-3.761-2.038-3.93-3.155-.08-.255-.51-1.818-1.158-1.906zM59.708 51.39c.667-.257 1.381 2.045 1.619 2.41 1.41 3.275 3.936 5.558 8.003 4.797 1.939-.747 1.874-2.735 2.076-4.939.07-.337.027-.61.235-.86.11.011.202.02.284.044-.119-.071-.254-.084-.438-.099-.206.21-.217.439-.286.722-.2 1.852-.244 3.392-2.162 4.019-4.023.64-6.144-1.427-7.539-4.178-.251-.328-1.097-2.487-1.794-1.93l.002.014z" fill="#B2B2B2"/><path fill-rule="evenodd" clip-rule="evenodd" d="M77.573 51.137c-.352-2.17-1.567-2.79-3.558-4.198-3.435 1.845-8.479-.943-8.019-2.054-1.76.18.654 2.715-.716 4.392-.353-.538-.85-3.597-3.753-3.75-.576 3.851-8.602 1.794-9.936-.04-.153.036-1.491.876-2.22 1.416.157 1.563.36 4.094-1.398 6.215 1.085-1.986 1.25-3.983.4-6.166.507-.988 2.836-2.756 3.784-2.563.256.298.607.553.92.74 2.028 1.203 6.022 2.202 7.625-.162.111-.197.02-.054.112-.31.587-.114 2.858.708 3.045 1.147.443.334.563.698.675.85.053.02.379.78.423.616.081-.215-.058-.582-.159-.785-.214-.432-.343-.818-.352-1.117-.006-.19.13-.801.29-.926.24-.41 1.056-.684 1.619-.512.67 2.666 5.856 3.239 7.991 1.989 1.179.728 3.476 2.603 3.26 4.266a5.26 5.26 0 00-.04.428c-.004.12-.005.307.007.524zM68.898 62.542l.03-.342c.318.666 1.008.813 1.51.46 1.35-.944 1.049-2.763 2.465-3.612 1.458-.873 2.662-1.726 4.214-3.139.78-.71 1.352-1.742 1.272-2.69l.377.12c.796 2.241-3.015 4.294-5.416 6.37-.862.806-1.177 1.621-1.549 2.72-.194 1.706-.875 1.644-1.438 1.727-.442.065-1.541-.313-1.464-1.62l-.001.006zM73.778 64.506l-.398 1.23c-2.68 1.915-3.174 4.101-3.72 6.993-.33-.726.009-4.785 1.955-7.025 1.14-.692 1.023-.507 2.163-1.198zM55.917 88.52c.79-1.37.554-2.365.595-3.953.112-.219.651 2.416.243 3.088-.122.2.735.07 1.042-.79.084 1.196-1.026 1.385-1.88 1.654zM58.733 90.71c.744-.916.959-2.81.858-3.648.595 1.01.489 2.626.175 2.865.607-.437.423-.015 1.067-.75-.02 1.01-1.212 1.453-2.1 1.532zM44.724 62.5c.49 1.644.929 2.259 2.154 3.8 1.548 1.945 2.939 2.347 4.514 2.823.672.203 3.254.64 4.957 1.6-.64-.58-1.97-1.299-3.67-2.102-1.925-.91-3.44-2.026-4.849-4.106-1.241-2.175-1.453-4.969-2.507-7.808-.9.054-.603 3.413-.599 5.793zM67.042 82.63c.039.747.162 1.428.811 1.666.912.335 1.543.289 2.3-.227-.34.427-.675.817-.95 1.147-1.023 1.214-2.078.7-3.964.303 1.147-.956 1.581-2.145 1.803-2.89zm-8.44-3.59c.016.047.221.493.237.54.779 2.263 2.293 3.529 3.492 3.895 1.164.356 2.84.572 4.017-1.217-.017.676-.163 1.508-1.495 3.02-1.571.058-4.242-1.151-4.877-2.254-.454-.699-.915-2.122-1.234-3.395-.016-.067-.156-.527-.14-.59zM49.386 74.058c-.612-1.376 1.636-2.807.529-3.322-4.265-2.055 4.014-1.078 5.069.215-3.18-1.586-4.884 3.415-5.001 4.64.017-.544-.49-1.294-.596-1.533zM35.287 42.214c.32 2.602 4.417 5.261 8.063 5.708.82 2.076 2.491 2.82 3.33 4.864-.24.448-1.22 2.225-1.523 2.297-1.952-1.74-2.414-3.72-3.177-6.005-.316.025-7.449-2.566-6.693-6.864zM87.866 43.015c-.905 3.792-5.558 5.324-7.927 5.479-.295.667-.798 1.276-1.32 1.371.057.43.03.86-.117 1.266-.175.486 1.844-.205 1.934-1.598 2.021.107 4.417-1.776 6.02-3.18 1.046-1.186 1.456-2.592 1.493-3.132.025-.223-.035-.264-.083-.206z" fill="#B2B2B2"/><path fill-rule="evenodd" clip-rule="evenodd" d="M65.509 28.921c6.914.953 7.769 11.203 5.993 15.888 1.152 1.089 2.692.031 3.003-.616 1.547-7.597-3.254-15.466-8.996-15.272zM71.933 64.382l.323-.972c.072.382.36.486.503.73l-.826.242zM51.718 78.445a.263.263 0 01-.132-.124c-.453-.926-.437-1.946.087-3.341a.307.307 0 01.145-.167c.512.618 1.056 1.208 1.535 1.853.067.09.156.26.082.322l-1.718 1.457zm4.166-3.472c.03.057.05.116.056.172-.658.457-1.27.99-1.976 1.368-.103.055-.277-.009-.364-.114l-1.598-1.929c.724-2.102 2.553-2.056 3.882.503zm-.877 3.951c.001.014-1.033.896-1.314 1.138a.86.86 0 01-.223-.13l-1.414-1.117A.207.207 0 0152 78.75c.563-.485 1.095-1.011 1.688-1.453.055-.041.16-.021.215.035.385.397.747.824 1.065 1.282.06.088.031.206.04.31zm1.16-3.277c.301.64.463 1.061.711 1.699-.454.376-.872.803-1.363 1.127-.07.046-.194.014-.261-.055-.39-.4-.752-.838-1.066-1.307-.048-.073-.038-.204.024-.247l1.887-1.309c.03.024.054.054.068.092zm.938 2.248l.5 1.458c-.277.246-.521.537-.83.738-.05.032-.135-.03-.182-.081-.286-.306-.572-.62-.801-.975-.047-.07-.046-.196.01-.243l1.202-1.008c.046.024.083.061.1.11zm-1.678 3.339a1.488 1.488 0 01-.142-.085l-1.259-.826c.422-.364.817-.764 1.266-1.092.052-.038.15-.033.203.02.303.298.566.642.82.989.039.053.088.154.045.192l-.933.802zm2.258.66a.172.172 0 01-.077.128l-.257.155c-.093.056-.196 0-.3-.067l-1.213-.683c.258-.223.498-.472.775-.67.037-.026.11-.025.143.015l.93 1.122zm.066-2.087l.507 1.315c.041.106.044.204-.024.28l-.254.283c-.305-.378-.64-.731-.915-1.133-.038-.056-.035-.155.009-.193l.667-.577a.102.102 0 01.01.025zM47.845 29.688c12.471 3.306 10.117 9.577 8.775 14.866 1.152 1.088 2.37.733 3.521-.553 2.032-8.392-2.833-13.243-12.296-14.313z" fill="#fff"/><path fill-rule="evenodd" clip-rule="evenodd" d="M62.077 33.929l1.333-.521c.104-.023.2-.04.306-.043l.114.026.113.066.101.096.173.245c.117.222.22.441.317.68.139.358.258.725.372 1.099l.124.414c.058.243.095.467.12.717.02.274.023.537.015.808-.05 1.199-.341 2.228-.527 3.46-.136-.03-.407-.107-.796-.061-.002-.439-.01-.481-.027-.923a16.51 16.51 0 00-.11-1.215 19.34 19.34 0 00-.132-.798c-.08-.4-.174-.784-.283-1.173a15.185 15.185 0 00-.385-1.13 14.754 14.754 0 00-.482-1.077l-.346-.67z" fill="#B2B2B2"/></svg>